<svg xmlns="http://www.w3.org/2000/svg" viewBox="0 0 472 580" width="472" height="580"><path d="M296.05 502.97C298.13 501.86 298.80 496.61 297.00 495.50C296.45 495.16 296.00 493.30 296.00 491.38C296.00 489.45 295.54 487.00 294.97 485.94C294.07 484.27 294.48 483.79 298.05 482.26L302.15 480.50L301.56 470.00C301.24 464.23 300.72 454.32 300.41 448.00C300.10 441.68 299.38 436.05 298.82 435.50C297.76 434.46 298.27 453.15 299.76 469.82C300.80 481.53 301.26 481.16 285.94 480.84C276.81 480.65 272.68 480.92 271.82 481.78C270.86 482.74 271.07 483.00 272.80 483.00C274.01 483.00 275.00 483.45 275.00 484.00C275.00 484.55 277.01 485.00 279.46 485.00C282.52 485.00 284.48 485.59 285.71 486.88C286.69 487.91 288.53 489.07 289.80 489.46C291.87 490.09 292.07 490.69 291.80 495.33L291.50 500.50L282.50 500.58C277.55 500.63 272.38 501.20 271.00 501.85C268.68 502.96 268.78 503.02 272.50 502.66C274.70 502.45 278.52 502.57 281.00 502.94C288.63 504.05 294.01 504.07 296.05 502.97ZM263.00 502.12C263.00 500.97 258.95 499.91 257.64 500.72C257.08 501.07 257.50 501.68 258.57 502.10C261.25 503.16 263.00 503.16 263.00 502.12ZM254.00 499.86C254.00 499.23 253.21 498.15 252.25 497.44C249.65 495.54 251.07 494.90 258.14 494.80C264.16 494.72 264.70 494.51 268.25 490.86C272.25 486.74 272.12 485.78 268.00 489.00C266.62 490.08 264.80 490.97 263.95 490.98C263.10 490.99 261.90 491.50 261.29 492.11C260.67 492.73 257.88 493.26 255.09 493.31C250.20 493.38 249.53 493.84 249.95 496.87C250.34 499.65 254.00 502.36 254.00 499.86ZM201.52 485.03C201.19 484.49 199.20 483.54 197.10 482.91C194.06 482.00 192.86 480.88 191.16 477.38C189.89 474.78 188.34 473.00 187.34 473.00C185.84 473.00 185.87 473.25 187.62 475.25C188.70 476.49 190.21 478.74 190.96 480.25C191.72 481.76 192.89 483.00 193.55 483.00C194.22 483.00 196.06 483.67 197.64 484.49C200.95 486.22 202.38 486.42 201.52 485.03ZM207.75 485.37C209.02 485.03 210.00 483.99 210.00 482.98C210.00 480.67 206.87 481.38 205.19 484.06C203.90 486.14 204.24 486.31 207.75 485.37ZM265.48 474.81C264.53 471.89 263.36 469.07 262.88 468.55C262.39 468.03 262.00 466.78 262.00 465.79C262.00 464.79 261.59 463.19 261.09 462.24C259.80 459.79 256.00 447.26 256.00 445.47C256.00 444.64 255.59 443.19 255.09 442.24C254.59 441.28 253.66 437.80 253.03 434.50C252.40 431.20 251.46 427.12 250.94 425.43C250.42 423.74 249.95 416.76 249.90 409.93C249.82 399.75 249.63 398.22 248.84 401.50C248.32 403.70 248.09 410.68 248.34 417.00C248.90 431.11 250.23 437.61 255.40 451.50C256.83 455.34 258.00 459.48 258.00 460.69C258.00 461.89 258.45 463.16 259.00 463.50C261.16 464.83 260.03 467.86 257.25 468.23C254.51 468.60 254.51 468.60 257.88 469.58C260.50 470.34 261.63 471.47 262.88 474.55C266.28 482.92 268.17 483.12 265.48 474.81ZM184.55 469.25C184.53 467.19 184.88 464.49 185.32 463.25C185.77 462.01 185.74 461.00 185.27 461.00C182.93 461.00 181.07 471.46 183.25 472.34C183.94 472.62 184.52 472.88 184.55 472.92C184.58 472.96 184.58 471.31 184.55 469.25ZM199.26 458.75C198.67 457.51 197.91 455.66 197.58 454.64C197.11 453.19 196.67 453.03 195.61 453.91C194.27 455.02 189.32 453.90 188.02 452.19C186.75 450.52 182.75 449.00 179.60 449.00C177.71 449.00 175.97 448.44 175.72 447.75C175.47 447.06 174.93 446.82 174.51 447.21C172.53 449.05 175.09 451.00 179.47 451.00L184.00 451.00L184.00 455.69C184.00 460.01 184.12 460.23 185.44 458.44C186.66 456.79 187.18 456.69 188.93 457.75C191.66 459.42 193.66 459.33 194.36 457.50C195.27 455.14 196.46 455.73 197.76 459.18C198.42 460.94 199.27 462.06 199.65 461.68C200.03 461.31 199.85 459.99 199.26 458.75ZM217.07 455.42C218.00 454.30 218.09 453.36 217.37 452.23C215.96 449.99 214.00 449.52 214.00 451.42C214.00 452.29 214.45 453.00 215.00 453.00C215.55 453.00 216.00 453.45 216.00 454.00C216.00 455.46 213.16 455.23 208.28 453.36C205.42 452.27 204.00 451.13 204.00 449.92C204.00 448.93 203.52 447.82 202.92 447.45C202.23 447.03 201.96 447.74 202.17 449.47C202.39 451.24 203.52 452.68 205.50 453.72C207.15 454.59 209.18 455.66 210.00 456.09C212.49 457.40 215.67 457.10 217.07 455.42ZM212.00 444.01C211.65 441.27 211.06 438.72 210.68 438.35C209.84 437.50 209.77 445.25 210.61 447.42C211.86 450.68 212.62 448.82 212.00 444.01ZM173.12 439.43C172.22 435.60 172.20 435.58 172.10 438.67C171.99 442.03 173.14 446.09 173.71 444.38C173.89 443.82 173.63 441.60 173.12 439.43ZM200.58 442.07C201.70 443.00 202.00 442.92 202.00 441.68C202.00 440.82 201.55 439.84 201.00 439.50C199.59 438.63 199.76 434.71 201.29 432.62C202.89 430.43 207.15 431.97 208.90 435.36C209.78 437.06 209.88 436.39 209.39 432.11L208.77 426.73L211.40 427.38C213.94 428.02 213.97 427.98 212.29 426.03C211.34 424.92 209.09 423.52 207.28 422.93C204.94 422.16 204.00 421.23 204.00 419.72C204.00 415.16 202.10 419.89 200.09 429.45C198.31 437.93 197.20 448.46 198.70 442.70C199.07 441.27 199.46 441.14 200.58 442.07ZM172.34 420.25C172.72 413.18 172.59 409.00 171.98 409.00C171.40 409.00 171.00 413.74 171.00 420.67C171.00 427.08 171.16 432.15 171.36 431.92C171.56 431.69 172.00 426.44 172.34 420.25ZM301.93 422.58C302.03 417.14 301.39 418.41 300.72 425.00C300.37 428.42 300.48 429.74 301.01 428.50C301.48 427.40 301.89 424.74 301.93 422.58ZM222.97 419.32C224.82 415.57 227.08 411.38 227.98 410.00C230.17 406.67 232.37 399.57 231.74 397.87C231.18 396.35 231.20 396.30 228.96 403.75C228.25 406.09 227.30 408.00 226.84 408.00C226.38 408.00 226.00 408.90 226.00 410.00C226.00 411.10 225.55 412.00 225.00 412.00C224.45 412.00 224.00 412.69 224.00 413.54C224.00 414.38 223.21 416.27 222.25 417.74C220.32 420.68 217.85 427.21 218.92 426.55C219.29 426.32 221.11 423.07 222.97 419.32ZM207.93 407.07C207.84 405.20 204.16 412.84 204.11 415.00C204.10 415.82 204.96 414.73 206.04 412.57C207.12 410.41 207.97 407.94 207.93 407.07ZM173.00 405.07C173.00 403.45 173.52 400.86 174.15 399.32C175.64 395.68 175.45 386.45 173.46 366.00C172.32 354.35 172.12 347.82 172.77 343.77C173.81 337.27 172.96 328.53 171.72 333.00C170.15 338.66 169.69 365.57 171.04 372.57C172.47 379.96 172.80 398.04 171.62 404.25C171.17 406.65 171.29 408.00 171.95 408.00C172.53 408.00 173.00 406.68 173.00 405.07ZM302.43 396.75C302.06 393.41 302.31 388.79 303.02 385.75C304.56 379.07 308.05 367.81 308.98 366.50C309.37 365.95 310.76 362.35 312.07 358.50C313.38 354.65 315.25 350.15 316.22 348.50C317.20 346.85 317.99 344.00 318.00 342.16L318.00 338.81L312.75 339.53C306.55 340.38 303.00 341.59 303.00 342.87C303.00 343.38 305.68 343.07 308.96 342.19C312.24 341.31 315.27 340.93 315.68 341.35C316.10 341.77 315.39 344.22 314.10 346.80C310.97 353.09 310.40 354.53 308.37 361.25C306.37 367.88 304.49 368.97 305.51 362.92C306.38 357.78 305.24 349.36 303.86 350.74C302.24 352.36 301.05 369.22 301.11 389.50C301.15 402.90 301.45 407.62 302.11 405.50C302.63 403.85 302.77 399.91 302.43 396.75ZM260.72 394.26C260.49 392.74 260.29 393.75 260.29 396.50C260.28 399.25 260.47 400.49 260.70 399.26C260.94 398.03 260.95 395.78 260.72 394.26ZM212.27 392.25C214.54 385.05 215.28 381.08 213.95 383.27C213.06 384.73 210.00 395.03 210.00 396.55C210.00 398.18 210.99 396.31 212.27 392.25ZM251.89 389.50C251.95 387.21 251.74 386.86 251.00 388.00C250.47 388.82 250.07 391.30 250.11 393.50C250.19 396.97 250.31 397.17 251.00 395.00C251.44 393.62 251.84 391.15 251.89 389.50ZM234.38 391.04C235.22 388.58 235.73 386.40 235.51 386.18C234.96 385.63 232.00 392.89 232.00 394.79C232.00 397.07 232.65 396.03 234.38 391.04ZM255.08 363.87L256.27 353.23L263.33 352.54C267.21 352.15 271.30 351.20 272.42 350.42C274.26 349.13 273.89 349.00 268.30 349.00C264.93 349.00 261.45 348.72 260.57 348.39C259.38 347.93 259.14 348.21 259.63 349.48C260.15 350.82 259.79 351.10 257.90 350.84C254.56 350.36 252.95 356.92 252.48 373.00C252.07 386.73 252.83 384.08 255.08 363.87ZM240.05 350.59L240.19 326.50L242.75 324.25C244.16 323.01 245.77 322.00 246.32 322.00C246.88 322.00 247.11 321.78 246.84 321.51C246.58 321.24 244.59 321.66 242.43 322.44C240.27 323.21 237.60 324.14 236.50 324.50L234.50 325.14L236.50 326.62C238.42 328.03 238.50 329.20 238.41 354.30C238.36 368.85 238.68 379.21 239.12 377.59C239.55 375.99 239.98 363.84 240.05 350.59ZM217.96 344.11C217.92 338.82 217.87 333.77 217.87 332.88C217.85 330.92 206.71 329.55 203.73 331.14C201.99 332.08 198.05 331.55 191.25 329.46C188.00 328.46 188.45 330.55 191.75 331.80C197.52 334.00 202.10 334.22 204.10 332.41C205.68 330.98 206.45 330.88 208.55 331.84C209.95 332.48 212.20 333.00 213.55 333.00L216.00 333.00L216.06 345.75C216.11 354.92 216.40 357.83 217.08 356.11C217.61 354.79 218.00 349.39 217.96 344.11ZM227.60 339.32C227.96 337.40 227.81 336.00 227.25 336.00C226.71 336.00 226.00 337.91 225.68 340.25C225.35 342.59 224.84 346.07 224.55 348.00C224.08 351.12 224.18 351.02 225.50 347.07C226.31 344.64 227.26 341.15 227.60 339.32ZM267.18 329.90C268.90 328.98 269.13 328.19 268.59 324.86C268.25 322.69 267.54 320.14 267.02 319.21C264.76 315.12 262.00 308.50 261.96 307.06C261.93 306.20 261.22 303.70 260.38 301.50C259.54 299.30 258.65 295.97 258.39 294.11C257.93 290.77 252.15 281.52 251.15 282.51C250.87 282.79 251.57 284.28 252.70 285.81C254.57 288.34 254.73 289.83 254.54 302.75C254.41 310.88 253.87 317.46 253.27 318.20C252.68 318.92 251.99 321.14 251.73 323.14C251.46 325.15 250.94 327.29 250.57 327.89C250.18 328.51 250.54 329.00 251.37 329.00C252.19 329.00 253.08 328.21 253.33 327.25C255.66 318.58 256.55 316.00 257.22 316.00C257.65 316.00 258.01 316.79 258.02 317.75C258.02 318.71 258.71 321.30 259.55 323.50C260.39 325.70 261.33 328.29 261.65 329.25C262.32 331.26 264.23 331.48 267.18 329.90ZM319.53 314.26C317.63 306.71 316.97 319.02 318.79 328.00C319.36 330.83 319.55 330.07 319.80 324.01C319.96 319.89 319.84 315.51 319.53 314.26ZM174.32 326.25C169.68 321.95 164.00 319.38 164.00 321.57C164.00 323.20 172.50 328.05 176.90 328.92C177.12 328.96 175.96 327.76 174.32 326.25ZM260.25 319.75C259.70 319.06 259.59 317.60 260.01 316.50C260.70 314.67 260.83 314.74 261.49 317.24C261.89 318.75 262.62 319.74 263.11 319.43C263.60 319.13 264.00 319.36 264.00 319.94C264.00 321.40 261.46 321.27 260.25 319.75ZM213.83 312.75C215.77 308.97 218.74 303.98 220.41 301.68C221.28 300.48 224.00 296.35 226.44 292.50C229.32 287.96 232.13 284.83 234.44 283.59C237.74 281.82 238.00 281.35 237.96 277.09L237.91 272.50L235.99 276.14C234.78 278.43 232.84 280.25 230.78 281.03C228.41 281.93 227.97 282.40 229.22 282.71C230.65 283.06 230.73 283.45 229.73 285.07C228.13 287.63 225.01 287.67 225.68 285.12C226.14 283.37 225.41 283.23 215.34 283.08C209.38 282.99 202.99 282.38 201.13 281.72C197.91 280.57 197.65 280.66 194.88 283.97L192.00 287.42L192.00 284.65C192.00 283.06 192.43 282.14 193.00 282.50C193.55 282.84 194.00 282.81 194.00 282.43C194.00 281.65 188.81 277.00 187.95 277.00C187.50 277.00 187.47 283.43 187.90 286.12C187.96 286.46 190.30 287.69 193.10 288.85C199.18 291.38 217.84 293.16 216.56 291.09C216.08 290.31 216.53 289.67 217.81 289.34C218.91 289.05 220.05 287.91 220.34 286.81C220.63 285.70 221.33 285.08 221.89 285.43C222.54 285.84 222.21 287.25 220.97 289.28C219.90 291.05 218.62 293.40 218.12 294.50C217.62 295.60 216.04 297.85 214.61 299.50C211.93 302.58 211.23 305.00 213.00 305.00C213.55 305.00 214.00 304.10 214.00 303.00C214.00 300.90 216.42 300.25 217.53 302.04C218.40 303.46 215.32 308.00 213.48 308.00C212.66 308.00 212.00 308.68 212.00 309.50C212.00 310.32 211.55 311.00 211.00 311.00C210.45 311.00 210.00 310.10 210.00 309.00C210.00 306.64 209.20 306.53 206.57 308.52C204.68 309.96 204.69 310.04 206.99 312.49C209.91 315.60 212.32 315.69 213.83 312.75ZM257.71 306.69C256.07 304.18 256.05 303.80 257.51 302.35C259.63 300.23 260.20 301.04 259.82 305.62L259.50 309.45L257.71 306.69ZM316.63 303.75C316.01 301.96 314.76 299.46 313.86 298.19C312.96 296.91 312.43 294.89 312.68 293.69C313.13 291.61 313.08 291.59 311.65 293.33C310.20 295.11 310.13 295.11 309.17 293.32C308.47 292.00 308.59 290.92 309.59 289.54C310.87 287.80 311.00 287.78 311.00 289.37C311.00 292.05 312.67 290.41 313.34 287.07C313.66 285.43 314.93 282.95 316.14 281.55C318.28 279.09 321.68 273.85 324.12 269.26C325.00 267.60 325.03 266.43 324.21 264.76C323.23 262.75 323.17 262.86 323.68 265.75C324.02 267.68 323.83 269.00 323.22 269.00C322.06 269.00 311.10 279.64 306.50 285.23C304.39 287.79 302.16 289.21 299.00 290.01C296.52 290.64 293.82 291.50 292.99 291.94C292.15 292.37 285.51 292.65 278.22 292.56C264.30 292.40 263.72 292.49 262.74 295.17C261.80 297.72 263.98 298.20 282.50 299.57C297.71 300.70 299.97 300.66 303.93 299.21C307.11 298.05 308.47 297.92 308.75 298.74C308.96 299.37 309.74 299.65 310.50 299.36C311.33 299.04 312.93 300.44 314.57 302.92C317.83 307.85 318.10 307.96 316.63 303.75ZM220.00 294.34C220.00 293.23 220.90 291.50 222.00 290.50C223.84 288.84 224.00 288.83 224.00 290.39C224.00 291.32 223.10 293.05 222.00 294.23C220.03 296.35 220.00 296.35 220.00 294.34ZM177.30 270.25C176.25 267.39 170.88 258.04 169.95 257.47C169.47 257.17 169.28 253.91 169.53 250.22L169.98 243.50L168.63 250.50C167.89 254.35 167.52 258.18 167.81 259.00C168.34 260.52 173.54 268.48 175.46 270.71C177.00 272.51 178.03 272.25 177.30 270.25ZM239.89 265.50C239.95 263.85 239.80 263.76 239.00 265.00C238.47 265.82 238.07 267.85 238.11 269.50C238.20 272.44 238.22 272.45 239.00 270.00C239.44 268.62 239.84 266.60 239.89 265.50ZM255.98 266.75C255.99 265.24 256.45 264.00 257.00 264.00C257.55 264.00 258.00 263.52 258.00 262.94C258.00 262.36 257.48 262.20 256.85 262.60C256.13 263.04 255.96 262.87 256.41 262.15C257.35 260.62 256.13 256.80 254.93 257.54C254.42 257.86 254.01 261.35 254.02 265.31C254.03 270.32 254.32 272.05 255.00 271.00C255.53 270.18 255.98 268.26 255.98 266.75ZM289.62 266.77C291.20 264.44 292.81 262.06 293.19 261.47C293.56 260.89 293.53 259.86 293.11 259.18C292.62 258.39 291.31 260.01 289.43 263.73C287.82 266.90 286.05 269.83 285.50 270.23C284.86 270.71 284.90 270.97 285.62 270.98C286.23 270.99 288.03 269.10 289.62 266.77ZM267.97 265.25C267.95 264.84 267.28 263.63 266.47 262.56C264.38 259.80 264.65 257.26 267.17 255.91C268.37 255.27 270.34 253.79 271.55 252.62C272.76 251.45 274.59 249.77 275.62 248.87C281.85 243.46 290.76 232.43 289.74 231.40C289.50 231.17 287.24 232.99 284.70 235.46C282.17 237.92 278.95 240.23 277.55 240.58C276.15 240.93 275.00 241.62 275.00 242.11C275.00 242.60 274.32 243.00 273.50 243.00C272.68 243.00 272.00 243.45 272.00 244.00C272.00 244.55 271.07 245.00 269.94 245.00C268.65 245.00 268.15 244.57 268.59 243.85C268.98 243.22 267.43 243.75 265.15 245.04C262.87 246.32 261.00 247.66 261.00 248.02C261.00 248.38 259.88 249.19 258.50 249.82C256.07 250.92 254.89 255.00 257.00 255.00C257.55 255.00 258.00 255.90 258.00 257.00C258.00 258.23 258.67 259.00 259.75 259.01C260.71 259.02 262.52 260.59 263.76 262.51C265.81 265.68 268.05 267.13 267.97 265.25ZM233.49 259.99C232.15 257.81 224.88 255.00 220.60 255.00C215.25 255.00 213.78 253.43 217.69 251.90C220.48 250.80 220.48 250.79 218.24 249.93C217.00 249.45 211.98 249.09 207.10 249.14C199.31 249.21 197.81 248.94 194.86 246.86C189.71 243.24 189.82 239.15 195.12 236.95C196.80 236.26 198.69 235.19 199.34 234.57C199.98 233.96 202.88 231.73 205.80 229.61C208.71 227.49 210.88 225.55 210.62 225.28C210.10 224.77 201.75 230.26 198.56 233.21C197.50 234.19 195.83 235.00 194.87 235.00C193.91 235.00 192.84 235.45 192.50 236.00C189.90 240.21 179.49 232.16 174.50 222.09C171.94 216.92 170.00 214.53 170.00 216.55C170.00 217.92 173.65 224.00 177.64 229.26C180.04 232.43 182.00 235.62 182.00 236.36C182.00 237.09 182.90 238.50 184.00 239.50C185.10 240.50 186.00 241.93 186.00 242.69C186.00 243.44 186.79 244.36 187.75 244.73C188.71 245.10 190.51 246.33 191.74 247.46C194.57 250.08 199.37 252.47 204.50 253.80C211.72 255.68 219.10 257.00 222.34 257.00C224.10 257.00 227.10 257.87 229.02 258.94C232.95 261.14 234.41 261.48 233.49 259.99ZM323.14 250.50L322.20 246.50L322.10 250.67C321.98 255.51 323.27 259.96 323.78 256.50C323.94 255.40 323.65 252.70 323.14 250.50ZM309.73 246.27C309.51 244.20 309.33 245.65 309.33 249.50C309.32 253.35 309.50 255.05 309.72 253.27C309.94 251.50 309.95 248.35 309.73 246.27ZM298.34 245.75C298.65 243.96 299.21 240.97 299.59 239.11C300.07 236.69 299.94 235.92 299.13 236.42C298.51 236.80 298.00 238.44 298.00 240.06C298.00 241.68 297.55 243.00 297.00 243.00C296.45 243.00 296.00 244.35 296.00 246.00C296.00 250.01 297.64 249.83 298.34 245.75ZM321.04 225.07C320.47 224.00 320.00 221.99 320.00 220.60C320.00 218.02 317.35 212.60 313.85 208.03C312.79 206.64 310.13 203.26 307.96 200.52C305.78 197.78 304.00 194.97 304.00 194.27C304.00 193.57 303.55 193.00 303.00 193.00C302.45 193.00 301.98 192.44 301.95 191.75C301.93 191.06 301.26 189.15 300.47 187.50L299.02 184.50L299.64 188.00C299.98 189.93 301.61 194.43 303.26 198.00C304.91 201.57 306.86 205.85 307.59 207.50C308.54 209.64 308.93 209.95 308.96 208.60C309.00 206.78 309.08 206.78 310.75 208.74C315.53 214.33 317.11 216.71 317.55 219.00C317.82 220.38 318.47 223.42 319.02 225.76C319.56 228.11 320.01 232.61 320.01 235.76C320.04 246.28 321.48 247.08 321.79 236.75C321.95 231.34 321.61 226.14 321.04 225.07ZM310.50 228.17C309.45 219.78 308.85 222.82 309.71 232.12C310.19 237.28 310.62 239.15 310.83 237.00C311.01 235.07 310.87 231.10 310.50 228.17ZM170.09 223.54C168.94 219.99 168.00 215.04 168.00 212.54C168.00 210.04 167.55 208.00 167.00 208.00C165.13 208.00 166.42 218.91 169.07 225.50C169.51 226.60 170.20 228.62 170.59 230.00C170.99 231.38 171.51 231.94 171.74 231.24C171.98 230.55 171.23 227.09 170.09 223.54ZM299.83 218.00C299.85 215.18 299.69 214.89 299.00 216.50C298.53 217.60 298.15 220.30 298.17 222.50C298.20 225.94 298.31 226.15 299.00 224.00C299.44 222.62 299.81 219.93 299.83 218.00ZM215.91 223.39C217.68 222.51 219.54 220.71 220.04 219.39C220.54 218.08 221.52 217.00 222.23 216.99C222.93 216.99 224.56 215.64 225.86 213.99C227.16 212.35 228.65 211.00 229.16 211.00C229.68 211.00 231.96 210.10 234.24 209.00C236.51 207.90 239.84 207.00 241.63 207.00C243.42 207.00 245.16 206.56 245.49 206.01C246.53 204.34 236.95 206.14 231.13 208.71C228.17 210.02 225.52 210.86 225.24 210.58C224.97 210.30 223.80 210.73 222.65 211.54C221.50 212.34 218.74 213.04 216.53 213.10C208.81 213.29 206.95 214.79 214.30 214.90L221.10 215.00L218.46 218.46C217.01 220.36 214.96 222.19 213.91 222.53C212.86 222.86 212.00 223.55 212.00 224.07C212.00 225.30 212.15 225.27 215.91 223.39ZM205.51 210.23C206.14 209.78 205.62 208.62 204.18 207.20C201.85 204.92 201.84 204.91 202.52 207.08C202.96 208.46 202.72 209.56 201.86 210.11C200.84 210.76 201.00 210.97 202.50 210.97C203.60 210.97 204.96 210.64 205.51 210.23ZM211.78 203.95C211.72 201.87 211.28 201.06 210.38 201.41C209.66 201.68 208.16 200.74 207.04 199.32C205.92 197.90 205.00 197.05 205.00 197.43C205.00 197.82 206.12 199.61 207.50 201.41C208.88 203.21 210.00 205.21 210.00 205.84C210.00 206.48 210.42 207.00 210.93 207.00C211.45 207.00 211.83 205.63 211.78 203.95ZM170.29 200.58C173.37 195.70 179.22 189.00 180.39 189.00C181.31 189.00 184.00 186.39 184.00 185.51C184.00 185.16 182.20 185.88 180.00 187.12C177.80 188.36 176.00 189.96 176.00 190.68C176.00 191.41 175.65 192.00 175.22 192.00C174.78 192.00 173.70 193.24 172.80 194.75C171.91 196.26 170.01 198.85 168.59 200.50C165.98 203.53 165.38 205.00 166.75 205.00C167.16 205.00 168.76 203.01 170.29 200.58ZM253.50 204.00C253.84 203.45 254.88 203.00 255.82 203.00C256.75 203.00 258.08 202.10 258.77 201.00C260.33 198.50 259.87 198.50 255.77 201.00C253.97 202.09 251.74 202.99 250.81 203.00C249.88 203.00 248.84 203.45 248.50 204.00C248.15 204.56 248.97 205.00 250.38 205.00C251.76 205.00 253.16 204.55 253.50 204.00ZM201.00 201.61C201.00 200.83 195.18 195.00 194.40 195.00C193.97 195.00 195.13 196.57 197.00 198.50C200.28 201.88 201.00 202.44 201.00 201.61ZM246.50 200.00C246.16 199.45 245.38 199.00 244.76 199.00C244.14 199.00 242.70 198.14 241.56 197.10C237.91 193.73 231.64 190.61 232.37 192.53C232.72 193.43 233.00 194.53 233.00 194.99C233.00 195.44 233.92 195.57 235.05 195.28C236.30 194.95 237.95 195.52 239.30 196.73C243.01 200.09 247.94 202.33 246.50 200.00ZM212.39 195.01C211.69 190.67 213.22 185.78 216.21 182.79C217.94 181.06 218.60 179.00 217.43 179.00C217.11 179.00 216.25 179.61 215.50 180.35C214.15 181.71 208.19 181.29 203.50 179.51C202.36 179.08 203.34 180.48 205.75 182.76C208.30 185.17 210.00 187.67 210.00 189.02C210.00 191.35 212.05 199.00 212.67 199.00C212.86 199.00 212.74 197.21 212.39 195.01ZM281.00 198.02C281.00 197.46 279.23 197.00 277.06 197.00C271.49 197.00 270.08 193.57 273.60 188.55C275.28 186.16 275.43 184.62 273.89 185.57C273.28 185.95 272.43 185.69 272.00 185.00C271.45 184.11 271.00 184.42 270.48 186.07C269.62 188.76 267.62 191.00 266.07 191.00C265.48 191.00 265.00 191.45 265.00 192.00C265.00 192.55 265.54 193.00 266.20 193.00C267.13 193.00 267.13 193.27 266.20 194.20C264.20 196.20 264.83 197.00 268.44 197.00C270.33 197.00 272.09 197.34 272.35 197.75C273.08 198.93 281.00 199.18 281.00 198.02ZM225.96 186.04C224.06 184.41 222.05 183.06 221.50 183.04C220.95 183.02 222.07 184.35 224.00 186.00C225.93 187.65 227.93 189.00 228.46 189.00C228.99 189.00 227.87 187.67 225.96 186.04ZM263.47 185.29C263.04 184.31 262.76 183.00 262.86 182.38C262.95 181.77 262.35 180.70 261.51 180.01C260.68 179.32 260.00 178.14 260.00 177.38C260.00 176.62 259.55 176.00 259.00 176.00C257.49 176.00 257.75 176.99 260.73 182.67C263.24 187.48 265.26 189.41 263.47 185.29ZM294.75 183.28C299.38 182.76 300.63 181.00 296.36 181.00C293.79 181.00 293.74 180.88 294.40 176.25C294.76 173.64 295.34 167.90 295.67 163.50C296.00 159.10 296.62 154.82 297.03 154.00C298.08 151.94 294.42 144.50 291.38 142.51C282.22 136.51 275.76 134.57 274.65 137.47C274.21 138.63 274.76 138.82 277.29 138.41L280.50 137.88L278.00 139.40C275.41 140.98 269.91 141.57 270.12 140.25C270.72 136.42 269.21 136.15 265.63 139.46C264.17 140.82 262.39 141.70 261.68 141.43C260.96 141.16 258.67 142.59 256.59 144.61C253.33 147.77 252.89 148.72 253.43 151.39C253.77 153.10 254.49 154.65 255.02 154.83C255.56 155.02 256.03 156.14 256.08 157.33C256.13 158.94 256.48 158.59 257.42 156.00C259.14 151.22 260.53 151.60 260.15 156.75C259.86 160.78 259.99 161.00 262.56 161.00C264.06 161.00 265.85 161.78 266.55 162.73C267.66 164.25 267.75 164.13 267.29 161.73C266.98 160.11 267.21 159.00 267.85 159.00C268.45 159.00 268.68 159.68 268.36 160.51C267.60 162.49 269.73 165.00 272.17 165.00C273.44 165.00 273.99 165.59 273.79 166.75C273.62 167.77 274.13 168.50 275.00 168.50C275.82 168.50 276.86 169.06 277.30 169.75C277.74 170.44 279.21 171.00 280.56 171.00C281.92 171.00 283.81 171.40 284.76 171.88C285.72 172.37 287.76 173.36 289.30 174.08C291.70 175.20 292.06 175.89 291.80 178.94C291.58 181.57 290.98 182.58 289.50 182.84C288.40 183.03 287.05 183.66 286.50 184.23C285.81 184.95 286.28 185.04 288.00 184.51C289.38 184.10 292.41 183.54 294.75 183.28ZM192.67 173.86C191.88 171.50 190.73 169.41 190.13 169.21C189.16 168.89 190.17 172.84 192.63 179.00C194.00 182.42 194.04 177.89 192.67 173.86ZM258.16 168.65C257.06 167.47 255.97 165.15 255.73 163.50C255.38 161.07 255.27 161.30 255.15 164.69C255.07 167.00 255.48 169.18 256.06 169.54C256.65 169.90 257.63 171.39 258.24 172.85L259.36 175.50L259.76 173.15C260.00 171.74 259.37 169.95 258.16 168.65ZM196.93 156.14C197.64 154.80 197.67 153.91 197.00 153.50C195.65 152.66 195.71 143.00 197.07 143.00C197.68 143.00 197.86 142.15 197.50 141.00C197.05 139.58 197.32 139.00 198.43 139.00C199.29 139.00 200.00 139.39 200.00 139.88C200.00 140.36 201.30 141.01 202.88 141.33C204.46 141.64 206.43 142.58 207.26 143.40C208.09 144.23 209.04 144.63 209.38 144.29C209.72 143.95 210.00 144.19 210.00 144.83C210.00 145.47 210.79 145.96 211.75 145.92C212.81 145.87 213.00 145.64 212.24 145.34C210.45 144.61 211.75 143.00 214.12 143.00C215.22 143.00 215.87 143.40 215.56 143.90C215.26 144.39 215.68 145.05 216.51 145.36C217.33 145.68 218.00 146.59 218.00 147.39C218.00 148.18 218.46 148.99 219.02 149.17C219.59 149.36 220.30 151.09 220.61 153.01C221.08 155.96 220.81 156.65 218.90 157.50C216.13 158.72 214.81 161.67 217.49 160.64C218.46 160.27 219.84 160.45 220.56 161.05C222.57 162.72 224.43 158.68 222.94 155.89C222.27 154.64 222.07 152.03 222.44 149.54C222.92 146.37 222.69 144.99 221.54 144.03C220.69 143.33 220.00 141.98 220.00 141.03C220.00 138.11 216.31 135.68 211.74 135.59C209.41 135.54 207.05 134.95 206.50 134.27C205.71 133.30 204.65 133.34 201.50 134.47C198.25 135.64 197.97 135.92 200.00 135.97C201.99 136.02 202.19 136.23 201.00 137.00C199.02 138.28 195.71 138.28 196.50 137.00C197.55 135.30 193.42 135.90 191.31 137.75C188.74 140.00 186.10 145.67 185.84 149.50C185.45 155.20 186.00 158.78 187.25 158.73C190.59 158.61 192.00 159.13 192.00 160.50C192.00 162.27 195.12 159.51 196.93 156.14ZM208.97 159.50C208.84 158.06 205.55 157.04 204.03 157.98C203.32 158.42 203.07 159.30 203.47 159.95C204.32 161.33 209.10 160.95 208.97 159.50ZM268.26 156.34C267.32 155.96 267.40 155.12 268.61 152.79C270.44 149.25 269.16 147.67 265.26 148.65C262.63 149.31 262.31 147.84 264.57 145.57C265.44 144.71 265.80 144.00 265.37 144.00C264.95 144.00 265.07 143.53 265.64 142.96C266.32 142.28 267.53 142.25 269.16 142.87C270.53 143.39 274.98 144.12 279.06 144.50C287.30 145.25 288.00 145.49 288.00 147.56C288.00 149.37 287.04 149.34 284.56 147.47C283.49 146.66 281.92 146.03 281.06 146.06C280.09 146.10 280.35 146.47 281.75 147.03C284.13 147.99 284.66 149.47 283.00 150.50C282.45 150.84 282.00 150.64 282.00 150.06C282.00 149.48 280.30 149.00 278.21 149.00C275.01 149.00 274.40 149.34 274.26 151.24C274.16 152.46 273.62 153.63 273.04 153.82C272.47 154.01 272.00 154.61 272.00 155.14C272.00 155.68 272.45 155.84 273.00 155.50C273.55 155.16 274.00 155.36 274.00 155.94C274.00 157.01 270.53 157.26 268.26 156.34ZM279.57 153.48C278.51 152.68 277.93 151.74 278.28 151.39C279.33 150.34 282.00 151.83 282.00 153.47C282.00 155.31 282.00 155.31 279.57 153.48ZM277.00 145.77C277.00 145.29 274.55 145.00 271.55 145.12C268.55 145.24 266.33 145.73 266.63 146.21C267.33 147.34 277.00 146.93 277.00 145.77ZM208.75 141.31C207.79 141.06 207.00 140.42 207.00 139.89C207.00 139.30 207.75 139.33 208.93 139.96C211.52 141.35 212.00 141.27 212.00 139.50C212.00 138.68 212.45 138.00 213.00 138.00C214.61 138.00 214.15 140.73 212.42 141.39C211.55 141.73 210.76 141.95 210.67 141.88C210.58 141.82 209.71 141.56 208.75 141.31Z" fill="currentColor" fill-rule="evenodd"/></svg>