<svg xmlns="http://www.w3.org/2000/svg" viewBox="0 0 472 580" width="472" height="580"><path d="M281.78 508.44C284.44 506.58 284.69 502.63 282.25 500.81C281.29 500.09 279.83 498.21 279.02 496.63C277.63 493.94 274.48 490.54 266.94 483.58C264.00 480.86 263.83 480.33 264.45 476.08C266.27 463.77 266.99 461.07 269.89 455.50C271.61 452.20 274.65 444.32 276.64 438.00C278.62 431.68 280.74 425.88 281.35 425.13C281.95 424.37 282.60 421.90 282.78 419.63C283.63 408.87 283.96 403.86 284.33 396.00C284.56 391.32 285.25 384.01 285.87 379.75C286.49 375.49 287.39 368.74 287.87 364.75C289.20 353.60 289.71 352.40 293.83 350.70L297.50 349.19L294.25 349.10C292.46 349.04 291.00 348.55 291.00 348.00C291.00 346.51 297.98 346.76 298.08 348.25C298.14 349.25 298.26 349.25 298.66 348.25C299.26 346.76 303.62 346.57 304.50 348.00C305.46 349.55 308.74 349.19 312.80 347.09C317.18 344.83 320.71 343.35 323.63 342.53C324.80 342.21 327.05 340.83 328.63 339.47C330.21 338.11 332.96 336.51 334.75 335.92C336.54 335.33 338.00 334.43 338.00 333.92C338.00 333.42 338.57 333.00 339.26 333.00C339.95 333.00 341.64 331.62 343.01 329.92C347.30 324.62 348.39 323.53 352.78 320.11C355.13 318.28 357.78 315.37 358.66 313.64C359.54 311.91 361.11 309.69 362.15 308.69C363.19 307.70 363.78 306.45 363.45 305.93C362.76 304.80 356.00 312.59 356.00 314.52C356.00 317.17 351.04 319.72 343.55 320.93C337.39 321.92 336.00 322.48 336.00 323.95C336.00 326.21 334.50 327.42 329.85 328.91C327.85 329.56 323.63 331.89 320.47 334.10C317.32 336.31 312.89 338.80 310.62 339.64C308.35 340.48 305.38 341.74 304.00 342.45C302.11 343.43 298.69 343.56 290.00 342.99C270.92 341.73 264.51 338.70 257.26 327.52C255.84 325.33 253.74 322.78 252.59 321.85C251.44 320.92 248.49 318.33 246.04 316.08C241.47 311.90 240.00 311.17 240.00 313.09C240.00 314.40 248.68 323.00 250.00 323.00C250.51 323.00 251.39 323.86 251.96 324.92C252.52 325.98 253.71 327.57 254.59 328.45C255.88 329.73 255.95 330.35 254.98 331.53C253.97 332.75 254.12 333.00 255.88 333.00C258.48 333.00 258.62 334.44 256.19 336.19C253.41 338.20 252.71 339.94 254.04 341.54C255.80 343.67 258.92 343.33 260.98 340.78C262.34 339.10 263.10 338.83 264.14 339.66C265.80 340.98 277.05 345.00 279.12 345.00C284.42 345.00 288.13 350.01 286.91 355.50C286.54 357.15 286.18 360.43 286.12 362.78C285.96 368.36 284.47 368.87 276.08 366.17C272.42 364.98 267.19 363.72 264.46 363.35C261.14 362.89 258.24 361.67 255.70 359.63C252.39 356.98 251.64 356.75 249.88 357.84C248.13 358.94 246.97 358.61 241.18 355.36L234.50 351.60L218.00 350.90C208.93 350.52 199.47 349.68 197.00 349.04C187.38 346.55 182.12 345.80 172.16 345.51C166.35 345.34 161.33 344.73 160.71 344.11C160.10 343.50 158.98 343.00 158.23 343.00C156.87 343.00 149.36 338.20 146.82 335.71C139.10 328.12 126.42 321.77 117.00 320.77C113.13 320.35 112.97 314.28 116.69 309.02C119.21 305.46 119.95 305.04 123.75 305.02C126.09 305.01 128.00 305.45 128.00 306.00C128.00 306.55 129.88 307.00 132.18 307.00C143.33 307.00 160.00 310.14 160.00 312.24C160.00 312.66 161.72 313.00 163.82 313.00C168.87 313.00 179.20 314.93 180.68 316.16C181.34 316.70 183.36 316.97 185.18 316.77C188.06 316.45 188.24 316.29 186.50 315.51C180.75 312.94 174.00 303.30 174.00 297.66C174.00 295.86 173.30 293.51 172.45 292.44C170.94 290.55 170.91 290.56 171.52 292.75C172.36 295.84 171.21 298.98 169.18 299.12C167.89 299.21 167.96 299.35 169.48 299.73C174.18 300.93 176.01 309.53 171.75 310.45C165.42 311.82 163.10 311.42 162.03 308.75C161.53 307.51 161.10 307.06 161.06 307.75C160.99 309.14 157.41 309.48 156.61 308.17C155.81 306.88 146.28 305.01 138.00 304.50C133.88 304.25 128.36 303.77 125.75 303.42C121.44 302.86 120.67 303.08 117.53 305.84C114.46 308.54 113.70 308.77 110.79 307.94C106.78 306.79 106.75 306.79 107.43 307.89C107.73 308.37 107.08 309.01 105.99 309.29C104.89 309.58 104.00 310.53 104.00 311.41C104.00 313.32 104.43 313.37 106.99 311.78C110.45 309.62 111.37 312.17 108.42 315.73C106.60 317.93 104.60 319.06 101.67 319.55C97.85 320.18 89.85 323.89 87.55 326.09C87.03 326.59 85.65 327.00 84.50 327.00C81.22 327.00 77.39 329.18 75.36 332.22C73.50 334.99 70.00 336.04 70.00 333.83C70.00 333.18 70.78 331.72 71.72 330.58C72.67 329.44 72.81 329.06 72.02 329.75C70.18 331.37 67.71 331.37 68.27 329.75C68.51 329.06 69.45 328.63 70.35 328.79C71.26 328.96 72.00 328.62 72.00 328.04C72.00 327.47 70.99 326.99 69.75 326.97C67.78 326.94 67.70 326.79 69.09 325.72C69.96 325.05 70.48 323.91 70.24 323.20C68.72 318.68 75.44 313.04 84.25 311.45C86.31 311.08 88.00 310.45 88.00 310.05C88.00 309.65 89.12 308.81 90.50 308.18C91.87 307.56 93.00 306.41 93.00 305.63C93.00 302.57 98.41 302.19 102.00 305.00C104.68 307.10 106.00 307.49 106.00 306.18C106.00 305.00 98.56 301.00 96.35 301.00C95.31 301.00 92.42 302.95 89.93 305.34C86.73 308.41 83.65 310.22 79.45 311.49C72.54 313.59 70.89 315.02 69.06 320.50C68.32 322.70 67.26 324.79 66.70 325.15C65.21 326.12 68.29 336.43 70.18 336.79C71.02 336.96 73.59 335.51 75.91 333.58C78.22 331.65 82.67 329.28 85.80 328.31C88.94 327.35 91.72 326.27 92.00 325.92C94.65 322.54 110.05 319.17 113.33 321.25C114.52 322.01 118.11 323.24 121.30 323.98C124.48 324.73 127.32 325.71 127.61 326.17C127.89 326.63 128.94 327.00 129.95 327.00C130.95 327.00 132.84 327.89 134.14 328.97L136.50 330.93L129.81 330.97C126.01 330.99 122.82 331.48 122.43 332.11C121.94 332.90 124.08 333.12 129.87 332.85C138.62 332.46 139.59 333.17 136.96 338.07C135.86 340.12 136.62 340.53 138.88 339.10C139.64 338.62 139.95 337.72 139.56 337.10C138.52 335.42 141.74 334.61 143.36 336.15C147.03 339.64 154.65 345.00 155.96 345.00C156.53 345.00 157.00 345.79 157.00 346.75C157.00 348.68 158.89 348.92 177.50 349.37C184.68 349.55 190.18 350.36 197.00 352.27C212.84 356.70 214.64 357.00 225.76 357.02C231.67 357.02 237.12 357.42 237.88 357.90C238.91 358.56 239.31 361.89 239.46 371.14C239.57 377.94 239.73 388.34 239.83 394.25C239.93 400.64 240.41 405.00 241.00 405.00C241.63 405.00 242.00 397.33 242.00 384.00C242.00 372.45 242.26 363.00 242.57 363.00C243.49 363.00 246.00 365.77 246.00 366.79C246.00 367.59 249.46 372.50 252.99 376.71C253.55 377.38 254.53 379.07 255.16 380.46C258.33 387.42 257.82 380.19 254.62 372.80C253.74 370.77 253.35 368.97 253.76 368.80C254.17 368.63 261.02 368.72 269.00 369.00L283.50 369.50L283.34 378.50C283.06 395.25 282.27 404.97 281.08 406.40C280.20 407.46 280.19 408.00 281.05 408.53C281.77 408.98 281.96 410.58 281.56 412.87C281.21 414.87 280.66 418.28 280.34 420.45C280.02 422.61 279.19 424.96 278.50 425.65C277.80 426.34 276.47 430.19 275.54 434.20C272.99 445.11 268.42 456.62 266.32 457.43C265.65 457.69 262.04 456.98 258.30 455.86C254.56 454.74 248.57 453.44 245.00 452.98C241.43 452.52 237.49 451.84 236.25 451.46C235.00 451.07 234.00 451.19 234.00 451.72C234.00 453.24 238.75 455.00 242.86 455.00C249.62 455.00 250.03 455.88 250.07 470.22C250.09 477.73 249.65 483.79 248.99 485.03C248.37 486.17 248.05 487.65 248.27 488.30C248.49 488.98 249.18 488.53 249.87 487.25C250.62 485.85 252.00 485.00 253.54 485.00C256.45 485.00 256.83 483.45 254.09 482.73C252.34 482.28 252.22 481.51 252.70 473.87C253.29 464.58 254.28 463.00 259.52 463.00C263.77 463.00 263.79 463.05 262.69 470.67C261.97 475.64 262.05 478.27 263.00 480.93C264.19 484.27 265.50 485.75 273.67 492.99C277.06 495.99 279.96 500.85 279.36 502.50C279.16 503.07 276.08 503.39 272.25 503.25C266.00 503.02 265.28 502.76 262.50 499.65C257.80 494.41 248.00 489.75 248.00 492.76C248.00 494.64 250.88 496.93 253.32 496.97C255.36 497.00 256.82 498.25 259.38 502.16C263.17 507.97 276.94 511.83 281.78 508.44ZM237.87 430.50C240.04 420.36 240.65 412.00 239.21 412.00C238.16 412.00 235.21 425.47 233.96 436.00C233.40 440.68 232.73 445.10 232.47 445.84C232.21 446.58 232.30 447.67 232.66 448.27C233.43 449.51 234.82 444.77 237.87 430.50ZM252.30 423.07C252.10 415.73 252.36 410.89 252.99 410.51C253.56 410.16 254.01 410.89 254.02 412.19C254.02 413.46 254.51 415.18 255.09 416.00C255.86 417.10 255.99 416.02 255.59 412.00C255.28 408.98 254.73 402.32 254.36 397.22C253.63 386.92 251.93 383.56 252.08 392.69C252.13 395.88 251.85 405.14 251.47 413.25C250.89 425.68 251.27 435.00 252.36 435.00C252.50 435.00 252.48 429.63 252.30 423.07ZM134.21 375.13C135.26 373.24 135.77 370.95 135.44 369.60C135.12 368.33 135.60 364.73 136.52 361.60C137.66 357.65 137.96 354.37 137.49 350.95C136.87 346.42 136.99 346.00 138.83 346.00C141.34 346.00 143.30 347.89 144.96 351.91C146.21 354.92 151.00 356.54 151.00 353.96C151.00 353.38 150.22 353.04 149.26 353.21C147.98 353.42 147.28 352.47 146.56 349.50C146.03 347.30 144.78 344.77 143.79 343.88C142.81 342.99 142.00 341.53 142.00 340.63C142.00 339.73 141.55 339.00 141.00 339.00C140.45 339.00 140.00 339.45 140.00 340.00C140.00 340.55 139.38 341.00 138.62 341.00C136.95 341.00 136.03 344.05 136.01 349.69C136.01 351.99 135.30 356.92 134.43 360.63C133.57 364.34 133.11 368.31 133.41 369.44C133.99 371.66 132.05 377.00 130.66 377.00C130.20 377.00 129.58 376.10 129.29 375.00C129.00 373.90 128.14 373.00 127.38 373.00C126.62 373.00 126.00 372.10 126.00 371.00C126.00 369.90 125.55 369.00 125.00 369.00C124.45 369.00 124.00 368.32 124.00 367.50C124.00 366.68 123.55 366.00 123.00 366.00C122.45 366.00 121.99 365.44 121.97 364.75C121.93 363.48 118.59 359.00 117.68 359.00C116.80 359.00 118.14 363.38 120.70 368.80C123.06 373.81 129.03 379.27 131.45 378.62C131.97 378.48 133.22 376.91 134.21 375.13ZM121.44 350.61C123.12 345.57 122.73 334.00 120.87 334.00C119.72 334.00 119.75 338.67 120.92 340.85C121.78 342.45 120.49 350.13 118.46 355.50C117.94 356.88 118.03 357.19 118.75 356.50C119.33 355.95 120.54 353.30 121.44 350.61ZM224.50 346.06C228.22 345.29 228.04 345.23 222.00 345.19C218.43 345.16 214.60 345.53 213.50 346.00C210.81 347.16 218.98 347.20 224.50 346.06ZM246.34 340.61C247.82 338.35 247.80 338.24 245.96 338.72C242.75 339.56 237.06 336.14 230.95 329.70C224.85 323.27 224.41 321.57 228.73 321.21C230.20 321.09 231.88 320.49 232.46 319.88C233.21 319.07 232.54 318.94 230.00 319.39C228.07 319.73 225.04 320.27 223.25 320.59C219.01 321.34 218.94 319.40 223.00 313.50C224.65 311.10 226.00 308.66 226.00 308.07C226.00 306.65 226.53 306.71 230.30 308.61L233.50 310.21L231.32 307.95C228.36 304.89 223.23 304.65 220.56 307.45C218.11 310.00 215.11 314.76 214.29 317.37C213.75 319.09 212.87 319.20 203.60 318.70C198.05 318.40 192.49 317.84 191.25 317.46C189.97 317.07 189.00 317.19 189.00 317.75C189.00 318.73 193.39 319.58 204.00 320.65C208.02 321.06 210.51 322.00 213.26 324.15L217.01 327.10L218.00 324.49L219.00 321.88L225.13 326.60C228.51 329.20 231.49 332.15 231.75 333.16C232.02 334.17 232.64 335.00 233.14 335.00C234.44 335.00 242.35 340.25 243.30 341.74C244.37 343.43 244.53 343.37 246.34 340.61ZM318.00 339.02C319.38 337.96 321.62 336.51 323.00 335.80C324.38 335.09 325.73 334.25 326.00 333.95C326.27 333.64 328.09 332.66 330.03 331.75C334.26 329.79 338.00 326.69 338.00 325.15C338.00 323.83 342.45 322.54 343.90 323.44C346.75 325.20 341.62 330.67 333.50 334.52C330.20 336.08 326.31 338.18 324.85 339.18C323.39 340.18 320.69 340.99 318.85 340.98L315.50 340.96L318.00 339.02ZM222.50 338.00C221.40 337.53 216.90 337.18 212.50 337.23C205.23 337.31 204.96 337.38 209.50 338.00C217.12 339.05 224.93 339.05 222.50 338.00ZM143.91 327.75C134.93 317.39 134.49 316.96 136.00 319.91C137.33 322.49 141.74 327.74 146.36 332.22C151.45 337.17 150.36 335.17 143.91 327.75ZM282.50 331.00C284.75 330.43 283.74 330.22 278.50 330.19C273.75 330.16 272.14 330.42 273.50 331.00C275.89 332.03 278.46 332.03 282.50 331.00ZM296.00 327.35C296.00 326.61 296.45 326.00 297.00 326.00C297.55 326.00 298.00 324.88 298.00 323.50C298.00 322.12 297.55 321.00 297.00 321.00C296.45 321.00 296.00 321.81 296.00 322.80C296.00 325.04 293.76 329.98 292.75 329.99C292.34 330.00 292.00 330.52 292.00 331.15C292.00 331.81 292.87 331.53 294.00 330.50C295.10 329.50 296.00 328.08 296.00 327.35ZM148.50 323.24C145.75 320.63 143.28 318.66 143.00 318.86C142.47 319.23 152.06 328.01 152.97 327.99C153.26 327.98 151.25 325.84 148.50 323.24ZM326.50 325.00C327.50 323.90 329.16 323.00 330.20 323.00C333.46 323.00 346.00 309.23 346.00 305.65C346.00 304.80 349.31 301.62 353.37 298.57C357.42 295.52 363.15 290.71 366.12 287.88C373.30 281.02 376.92 278.40 380.37 277.58C381.95 277.21 383.80 276.34 384.49 275.65C386.08 274.06 387.39 270.00 386.32 269.99C385.87 269.98 384.42 269.68 383.09 269.33C381.69 268.95 380.93 269.08 381.27 269.62C382.59 271.77 367.80 285.28 358.50 290.42C355.75 291.94 353.07 293.59 352.55 294.09C350.43 296.12 347.99 294.89 345.89 290.75C340.77 280.63 332.58 275.00 322.97 275.00C318.17 275.00 318.00 274.90 318.00 272.14C318.00 266.44 320.07 258.56 322.15 256.34C324.02 254.35 324.19 253.38 323.57 247.94C322.96 242.48 323.15 241.37 325.25 238.14C326.55 236.14 328.22 233.00 328.97 231.16C330.48 227.41 330.85 227.40 339.99 230.90C346.27 233.31 346.31 233.31 345.55 232.08C345.23 231.57 342.73 230.41 339.97 229.49C333.53 227.35 331.64 225.54 333.07 222.88C334.53 220.14 332.27 206.25 329.84 203.12C328.83 201.80 328.00 200.11 328.00 199.36C328.00 198.60 326.74 196.67 325.21 195.06C322.70 192.43 321.96 192.20 317.96 192.73C310.09 193.78 291.69 205.37 288.32 211.40C287.77 212.38 285.78 213.55 283.91 213.99L280.50 214.80L283.75 214.90C287.34 215.01 287.72 216.10 285.59 220.18C284.82 221.66 283.89 224.25 283.51 225.93C282.70 229.65 281.76 229.78 279.18 226.50C276.32 222.86 275.74 223.44 278.14 227.52C279.29 229.46 279.99 231.94 279.70 233.04C279.31 234.51 279.62 234.97 280.84 234.77C282.16 234.56 282.44 235.21 282.23 238.00C281.98 241.08 282.09 241.27 283.14 239.54C283.79 238.47 284.44 235.03 284.57 231.90C284.70 228.77 285.49 224.70 286.32 222.85C287.15 221.01 288.38 217.70 289.07 215.50C290.53 210.75 294.67 205.00 296.62 205.00C297.38 205.00 298.00 204.55 298.00 204.00C298.00 203.45 298.68 203.00 299.50 203.00C300.32 203.00 301.00 202.60 301.00 202.12C301.00 200.66 305.36 199.97 306.20 201.29C306.73 202.12 306.97 201.95 306.98 200.74C307.02 196.51 319.09 193.16 323.05 196.28C327.36 199.68 329.96 209.67 327.00 211.50C325.32 212.54 325.89 214.84 327.75 214.57C328.71 214.43 329.64 213.34 329.82 212.14C330.44 207.99 332.00 211.15 332.00 216.56C332.00 221.33 331.75 222.00 330.00 222.00C328.49 222.00 328.00 222.67 328.00 224.75C327.99 226.26 327.03 229.07 325.85 231.00C320.38 239.94 320.00 241.02 320.00 247.88C320.00 253.42 319.63 255.03 318.00 256.50C316.28 258.06 316.00 259.58 316.00 267.45L316.00 276.59L311.66 278.38C306.62 280.46 297.93 287.87 299.66 288.61C300.52 288.98 300.45 289.82 299.42 291.80C298.65 293.29 298.01 295.21 298.01 296.07C298.00 297.96 302.42 302.00 304.51 302.00C305.33 302.00 306.00 302.41 306.00 302.92C306.00 303.42 306.23 304.44 306.51 305.18C306.80 305.93 306.04 306.95 304.76 307.51C302.18 308.64 301.20 312.48 303.29 313.28C304.31 313.67 304.56 313.17 304.23 311.42C303.61 308.18 305.89 307.46 311.22 309.23C314.62 310.36 315.56 311.19 315.81 313.23C316.02 315.01 316.88 316.01 318.58 316.43C320.98 317.03 324.99 315.65 325.01 314.21C325.01 313.82 326.09 313.00 327.41 312.39C329.50 311.42 329.94 311.58 330.88 313.64C331.47 314.94 332.42 316.00 332.98 316.00C333.54 316.00 334.00 316.89 334.00 317.98C334.00 320.36 330.43 321.49 325.48 320.69C322.33 320.18 322.16 320.28 323.25 322.02C324.61 324.20 323.75 325.60 321.82 324.36C319.64 322.96 312.00 321.25 312.00 322.15C312.00 324.24 308.90 322.66 306.13 319.17C304.14 316.65 302.32 315.36 300.84 315.42C296.94 315.56 293.50 308.03 293.50 299.35C293.50 292.74 293.75 291.89 296.85 288.04C300.41 283.61 300.47 281.00 296.92 285.09C292.75 289.89 290.72 295.98 291.33 301.86C291.63 304.86 292.30 307.58 292.81 307.91C293.32 308.23 294.66 310.41 295.78 312.76L297.82 317.01L295.69 318.51C292.85 320.49 294.10 320.40 298.51 318.29L302.09 316.59L305.67 320.79C309.12 324.84 309.47 325.00 315.07 325.00C318.26 325.00 321.16 325.45 321.50 326.00C322.48 327.58 324.53 327.17 326.50 325.00ZM285.92 321.63C285.69 321.43 283.70 320.96 281.50 320.60C278.63 320.12 277.93 320.22 279.00 320.95C280.35 321.87 286.92 322.52 285.92 321.63ZM398.36 310.98C400.48 311.02 402.91 310.49 403.76 309.78C405.15 308.62 411.25 306.73 418.12 305.34C423.49 304.25 428.32 290.57 425.48 284.50C424.71 282.85 423.09 279.21 421.87 276.42C419.19 270.24 410.34 263.02 405.50 263.06C400.92 263.10 393.56 265.30 390.63 267.50C387.31 269.99 387.16 271.60 390.44 269.45C393.10 267.71 397.12 267.82 397.72 269.64C397.93 270.27 396.72 271.40 395.05 272.14C392.24 273.38 390.95 275.00 392.76 275.00C393.18 275.00 393.97 276.01 394.51 277.25C395.06 278.50 396.39 279.50 397.50 279.50C398.60 279.50 399.99 280.12 400.58 280.88C401.46 282.00 402.25 281.63 404.83 278.88C406.57 277.02 407.99 274.94 408.00 274.25C408.00 273.56 408.45 273.00 409.00 273.00C409.55 273.00 410.00 273.72 410.00 274.60C410.00 275.47 410.89 277.44 411.98 278.97C414.33 282.27 414.18 287.82 411.61 292.79C410.53 294.87 410.02 297.79 410.20 300.76C410.50 305.40 410.46 305.46 406.60 306.75C403.15 307.90 402.48 307.84 400.76 306.29C398.29 304.04 396.03 304.01 393.48 306.19C391.32 308.03 389.74 307.56 388.71 304.75C387.83 302.37 386.00 302.54 386.00 305.00C386.00 307.41 384.45 307.62 383.20 305.39C382.02 303.28 378.40 304.37 377.70 307.03C376.96 309.86 375.29 309.46 373.51 306.01C371.93 302.97 372.67 296.22 375.07 291.76C375.58 290.81 376.00 289.28 376.00 288.36C376.00 286.85 375.81 286.86 374.00 288.50C372.90 289.50 372.00 290.72 372.00 291.23C372.00 293.27 368.63 295.29 364.44 295.76C360.70 296.18 360.00 296.60 360.00 298.44C360.00 299.88 359.08 300.98 357.25 301.70L354.50 302.79L357.75 302.89C359.54 302.95 361.00 302.55 361.00 302.00C361.00 301.45 362.12 301.00 363.50 301.00C366.12 301.00 366.90 302.46 364.75 303.35C364.06 303.63 364.96 303.61 366.75 303.31C369.68 302.80 370.00 302.99 370.00 305.19C370.00 306.53 370.97 308.66 372.16 309.94C374.23 312.16 374.71 312.23 384.41 311.57C389.96 311.20 396.24 310.93 398.36 310.98ZM359.63 305.31C361.18 304.32 361.23 304.11 359.90 304.06C357.93 303.99 351.81 308.03 351.23 309.78C351.00 310.50 352.34 310.06 354.28 308.78C356.19 307.53 358.60 305.96 359.63 305.31ZM235.96 302.75C235.43 301.51 234.50 299.26 233.90 297.75C233.30 296.24 232.37 295.00 231.84 295.00C231.31 295.00 231.04 295.34 231.24 295.75C231.43 296.16 232.23 297.85 233.01 299.50C235.36 304.50 237.95 307.34 235.96 302.75ZM222.00 303.00C222.00 302.45 221.62 302.00 221.15 302.00C219.87 302.00 216.00 298.41 216.00 297.22C216.00 296.64 215.50 296.00 214.88 295.79C214.19 295.56 213.73 292.09 213.67 286.46C213.58 277.55 213.60 277.47 217.68 271.50C221.25 266.27 227.67 259.68 232.29 256.50C233.09 255.95 236.48 253.59 239.82 251.25C243.16 248.91 246.37 247.00 246.96 247.00C247.55 247.00 248.81 246.60 249.76 246.10C250.72 245.61 252.62 244.72 254.00 244.12C256.01 243.24 255.24 243.13 250.00 243.56C246.43 243.85 239.35 244.25 234.28 244.44C225.73 244.78 219.00 246.45 219.00 248.24C219.00 249.36 221.78 249.16 222.50 248.00C223.29 246.72 229.04 246.73 231.00 248.02C232.08 248.72 232.18 249.21 231.35 249.75C224.38 254.30 211.24 269.93 207.96 277.60C204.40 285.89 206.74 295.96 213.09 299.71C214.69 300.66 216.00 301.75 216.00 302.14C216.00 302.83 218.22 303.65 220.75 303.88C221.44 303.95 222.00 303.55 222.00 303.00ZM226.00 297.94C226.00 294.82 225.62 293.12 225.00 293.50C223.26 294.58 223.85 303.00 225.67 303.00C225.85 303.00 226.00 300.72 226.00 297.94ZM398.00 295.94C398.00 293.67 397.55 293.00 396.00 293.00C393.74 293.00 393.57 293.75 395.00 297.50C396.24 300.77 398.00 299.86 398.00 295.94ZM242.79 293.99C241.15 287.04 240.71 286.16 240.23 288.90C240.01 290.22 240.27 292.24 240.82 293.40C241.37 294.55 242.10 296.35 242.43 297.39C243.59 300.96 243.85 298.48 242.79 293.99ZM419.25 289.50C418.56 288.72 418.00 285.55 418.00 282.46C418.00 278.39 418.35 276.95 419.25 277.27C420.09 277.56 420.40 279.41 420.20 282.94C420.00 286.43 420.25 287.97 420.95 287.53C421.55 287.16 422.00 287.75 422.00 288.94C422.00 291.32 421.03 291.52 419.25 289.50ZM324.50 287.16C321.61 285.60 321.59 285.53 323.81 285.19C326.11 284.85 329.00 286.47 329.00 288.12C329.00 289.30 328.07 289.10 324.50 287.16ZM175.50 282.81C176.87 279.96 178.00 277.03 178.00 276.31C178.00 275.59 178.53 275.00 179.17 275.00C179.81 275.00 180.10 274.76 179.81 274.48C178.66 273.33 176.00 275.34 176.00 277.36C175.99 278.54 175.09 280.97 174.00 282.77C172.06 285.95 171.47 288.00 172.50 288.00C172.77 288.00 174.12 285.67 175.50 282.81ZM258.84 281.53C260.58 279.62 262.00 277.80 262.00 277.48C262.00 276.89 262.32 276.46 266.44 271.50C268.93 268.51 268.94 268.51 268.97 270.92C269.00 273.32 271.53 277.00 273.15 277.00C273.62 277.00 274.00 276.30 274.00 275.44C274.00 274.58 273.60 274.13 273.11 274.43C271.35 275.52 269.63 272.08 270.76 269.72C272.85 265.35 272.99 264.00 271.37 264.00C268.13 264.00 264.15 267.45 262.07 272.06C259.84 276.99 257.42 279.76 256.32 278.65C255.97 278.30 256.36 277.22 257.19 276.26C258.45 274.79 262.00 265.43 262.00 263.56C262.00 263.25 261.55 263.00 261.00 263.00C260.45 263.00 260.00 263.53 260.00 264.19C260.00 264.84 259.00 266.44 257.78 267.74C255.88 269.76 255.77 270.25 257.03 271.09C258.25 271.91 258.19 272.03 256.71 271.79C254.22 271.39 250.90 276.70 252.88 277.92C253.65 278.40 253.92 279.31 253.50 279.99C252.92 280.94 252.58 280.94 252.01 280.01C251.44 279.09 250.79 279.12 249.18 280.12C247.10 281.42 244.60 280.52 246.63 279.20C248.18 278.19 250.01 274.42 249.96 272.32C249.93 271.02 249.46 271.36 248.31 273.50C246.71 276.49 244.91 278.24 244.17 277.50C243.58 276.91 246.38 271.00 247.24 271.00C247.66 271.00 248.00 270.39 248.00 269.65C248.00 268.90 249.34 266.89 250.98 265.18C252.94 263.12 253.74 261.48 253.31 260.37C252.80 259.03 253.10 258.79 254.76 259.23C256.18 259.60 256.70 259.37 256.37 258.52C256.10 257.82 256.64 256.97 257.55 256.62C258.92 256.09 259.11 256.43 258.59 258.49C258.17 260.18 258.38 261.00 259.23 261.01C259.93 261.02 261.43 261.28 262.57 261.58C264.52 262.11 265.51 261.07 270.67 253.13C271.47 251.90 276.00 254.30 276.00 255.96C276.00 257.02 276.45 258.16 277.00 258.50C278.45 259.39 278.22 262.06 276.40 265.50C274.85 268.44 273.78 272.00 274.45 272.00C274.64 272.00 275.98 269.72 277.44 266.94C279.83 262.36 279.97 261.55 278.84 258.44C277.75 255.41 277.86 254.47 279.80 250.48C281.01 247.98 281.98 244.95 281.95 243.72C281.91 242.03 281.52 242.40 280.34 245.26C279.31 247.74 277.94 249.23 276.30 249.64C273.40 250.37 266.00 248.39 266.00 246.89C266.00 245.52 268.57 243.00 269.96 243.00C271.09 243.00 278.00 236.54 278.00 235.49C278.00 235.17 276.31 236.25 274.25 237.89C272.19 239.53 269.27 241.18 267.76 241.54C266.25 241.91 265.27 242.62 265.57 243.12C265.88 243.62 262.28 247.85 257.57 252.51C252.86 257.18 249.68 261.00 250.50 261.00C251.33 261.00 252.00 261.26 252.00 261.57C252.00 263.38 245.23 267.59 244.16 266.44C243.80 266.05 244.07 265.52 244.76 265.28C245.45 265.03 245.76 264.42 245.44 263.91C244.90 263.03 240.00 268.04 240.00 269.47C240.00 269.85 241.35 269.86 243.00 269.50C244.89 269.09 246.00 269.24 246.00 269.92C246.00 270.51 245.66 271.01 245.25 271.01C244.01 271.03 240.72 278.73 241.44 279.91C241.81 280.51 242.77 281.00 243.56 281.00C244.35 281.00 245.00 281.50 245.00 282.11C245.00 282.79 246.22 283.05 248.09 282.77C250.10 282.48 251.37 282.79 251.70 283.66C252.60 286.00 255.58 285.11 258.84 281.53ZM358.03 273.93C359.87 270.00 360.12 268.69 359.13 268.08C358.27 267.55 358.04 266.01 358.43 263.40C359.12 258.68 358.80 259.39 355.94 268.75C354.72 272.74 353.22 276.01 352.61 276.02C352.00 276.02 352.18 276.46 353.00 276.98C354.30 277.81 354.31 278.25 353.11 280.22C351.75 282.44 351.77 282.45 353.69 280.75C354.77 279.79 356.73 276.72 358.03 273.93ZM313.49 279.99C313.15 279.44 313.91 278.59 315.19 278.11C317.81 277.12 319.13 277.68 317.11 278.93C316.00 279.62 316.01 279.85 317.14 280.30C317.94 280.62 317.60 280.87 316.31 280.92C315.10 280.96 313.84 280.55 313.49 279.99ZM283.00 272.94C283.00 271.87 282.55 271.00 282.00 271.00C281.45 271.00 281.00 272.15 281.00 273.56C281.00 275.01 281.43 275.85 282.00 275.50C282.55 275.16 283.00 274.01 283.00 272.94ZM191.50 268.06C193.15 266.93 194.16 266.01 193.73 266.01C192.54 266.00 182.07 272.07 181.40 273.17C180.70 274.30 187.07 271.07 191.50 268.06ZM254.72 266.75C255.25 266.06 255.99 264.65 256.37 263.61C256.95 261.98 256.83 261.90 255.47 263.03C253.39 264.76 251.67 268.00 252.84 268.00C253.34 268.00 254.19 267.44 254.72 266.75ZM373.80 263.51C371.25 261.13 369.41 258.03 367.84 253.48C365.65 247.07 364.14 245.19 352.52 234.30C351.82 233.64 350.97 233.37 350.64 233.70C350.30 234.03 351.26 235.41 352.77 236.76C361.30 244.45 364.00 247.35 364.00 248.84C364.01 249.75 364.91 251.97 366.00 253.77C367.10 255.57 368.00 257.60 368.00 258.27C367.99 259.72 375.05 266.89 376.50 266.92C377.05 266.94 375.84 265.40 373.80 263.51ZM201.08 257.75C202.26 256.79 202.82 256.00 202.33 256.00C200.99 256.00 193.99 263.06 194.04 264.36C194.06 264.99 195.17 264.15 196.51 262.50C197.85 260.85 199.91 258.71 201.08 257.75ZM216.21 250.12C217.29 248.98 217.17 248.92 215.50 249.78C214.40 250.34 212.15 250.94 210.50 251.11C207.41 251.43 205.00 252.69 205.00 253.98C205.00 255.06 214.69 251.72 216.21 250.12ZM260.01 242.02C258.96 240.06 259.60 235.00 260.89 235.00C262.21 235.00 265.00 229.15 265.03 226.35C265.06 223.53 269.91 217.00 271.97 217.00C272.51 217.00 273.24 218.12 273.59 219.50C273.93 220.88 274.63 222.00 275.14 222.00C275.68 222.00 275.63 221.18 275.04 220.07C273.30 216.82 273.83 215.16 276.75 214.72C278.96 214.38 278.76 214.27 275.75 214.15C272.53 214.02 271.46 214.59 268.25 218.13C266.16 220.43 264.00 224.16 263.37 226.55C262.75 228.91 261.29 232.19 260.12 233.83C257.57 237.41 257.19 244.00 259.54 244.00C260.76 244.00 260.85 243.59 260.01 242.02Z" fill="currentColor" fill-rule="evenodd"/></svg>