<svg xmlns="http://www.w3.org/2000/svg" viewBox="0 0 472 580" width="472" height="580"><path d="M252.20 519.89C248.40 518.69 245.68 517.22 245.35 516.20C245.05 515.26 244.62 513.87 244.38 513.11C244.15 512.34 243.68 511.99 243.34 512.32C243.01 512.66 243.28 514.26 243.95 515.88C245.36 519.29 250.33 521.64 256.50 521.83C257.60 521.86 255.66 520.99 252.20 519.89ZM226.89 516.46C228.04 514.51 229.26 511.82 229.60 510.48C230.24 507.91 226.33 493.34 225.28 494.39C224.95 494.72 225.16 496.68 225.75 498.75C228.80 509.37 228.87 509.96 227.30 513.09C225.64 516.42 222.86 518.08 222.21 516.14C221.92 515.25 221.45 515.21 220.49 516.01C219.58 516.76 218.98 516.77 218.53 516.05C218.17 515.47 216.93 515.00 215.77 515.00C212.97 515.00 214.21 516.10 219.32 518.13C224.94 520.36 224.54 520.45 226.89 516.46ZM259.39 517.42C260.41 514.78 260.08 512.31 258.55 511.04C257.31 510.02 257.19 510.37 257.68 513.42C258.07 515.85 257.88 517.00 257.07 517.00C256.42 517.00 256.16 517.45 256.50 518.00C257.41 519.48 258.70 519.22 259.39 517.42ZM185.97 516.52C187.29 515.70 187.32 511.00 186.00 511.00C185.45 511.00 185.00 510.43 185.00 509.73C185.00 509.03 183.20 506.29 181.00 503.62C178.80 500.96 177.00 498.38 177.00 497.89C177.00 497.40 176.55 497.00 176.00 497.00C174.18 497.00 174.96 498.67 178.85 503.11C183.91 508.88 186.50 513.90 185.13 515.27C184.40 516.00 183.66 515.96 182.70 515.17C181.94 514.53 181.00 514.34 180.60 514.73C180.21 515.12 179.47 514.78 178.96 513.97C178.33 512.97 178.03 512.90 178.02 513.75C177.99 515.66 175.21 515.24 174.69 513.25C174.40 512.15 174.19 512.49 174.12 514.18C174.02 516.39 174.49 516.93 176.75 517.24C180.16 517.71 184.61 517.36 185.97 516.52ZM173.00 514.11C173.00 513.62 171.86 512.93 170.47 512.58C168.91 512.19 167.31 510.63 166.30 508.51C165.29 506.39 163.29 504.43 161.08 503.41C159.11 502.49 156.71 501.06 155.75 500.22C154.79 499.38 154.01 499.10 154.02 499.60C154.04 501.26 155.47 502.71 158.72 504.37C160.49 505.28 162.45 507.03 163.06 508.26C165.30 512.72 173.00 517.25 173.00 514.11ZM212.11 511.71C210.38 509.98 210.80 504.63 213.09 499.33C214.73 495.52 215.05 493.33 214.56 488.97C213.75 481.67 215.50 478.73 219.13 481.27C224.73 485.19 225.03 485.62 224.38 488.86C224.01 490.70 224.16 492.00 224.75 492.00C226.42 492.00 226.96 484.78 225.66 479.80L224.43 475.10L217.97 478.30C210.19 482.15 210.18 482.16 211.75 482.72C213.18 483.23 213.55 496.98 212.17 498.55C209.74 501.33 208.94 507.93 210.58 511.71C211.54 513.93 212.43 514.95 212.72 514.16C213.00 513.43 212.72 512.32 212.11 511.71ZM243.61 509.42C243.27 508.55 243.00 507.35 243.00 506.76C243.00 506.18 241.14 503.98 238.87 501.88C234.90 498.22 234.78 497.94 235.99 495.03C237.14 492.24 237.63 492.00 242.15 492.00C245.59 492.00 247.23 491.55 247.64 490.50C247.95 489.68 248.75 489.00 249.41 489.00C250.07 489.00 252.42 487.67 254.63 486.04C258.08 483.50 258.85 482.24 259.93 477.29C260.62 474.10 261.60 470.47 262.10 469.20C262.59 467.94 263.00 466.02 263.00 464.94C263.00 463.86 263.41 462.19 263.92 461.24C265.74 457.81 272.15 443.70 274.18 438.65C277.07 431.48 279.00 420.84 279.00 412.12C279.00 408.05 279.43 401.98 279.97 398.62C281.90 386.36 283.27 369.25 282.60 365.67C281.79 361.37 280.24 360.77 280.23 364.75C280.22 368.22 278.12 398.57 277.06 410.50C276.62 415.45 275.72 421.30 275.06 423.50C274.40 425.70 273.62 428.62 273.32 430.00C272.73 432.71 259.10 461.18 258.00 462.00C256.97 462.76 255.00 469.03 255.03 471.40C255.06 473.45 255.10 473.46 256.52 471.57C258.48 468.98 259.51 470.27 258.25 473.72C257.69 475.25 256.65 478.44 255.94 480.81C254.42 485.86 252.72 487.00 246.72 487.00C243.66 487.00 241.78 486.42 240.59 485.10C238.19 482.45 234.70 481.55 236.21 483.97C237.37 485.83 235.35 495.00 233.78 495.00C232.65 495.00 232.82 497.52 234.16 500.45C234.82 501.89 236.15 503.00 237.23 503.00C238.52 503.00 239.70 504.31 240.82 506.99C242.38 510.69 244.96 512.94 243.61 509.42ZM253.33 498.52C249.29 491.77 247.54 491.18 250.81 497.68C255.86 507.69 256.43 508.54 256.80 506.70C257.00 505.72 255.44 502.03 253.33 498.52ZM158.62 491.00C159.68 491.00 159.94 490.40 159.50 489.00C158.94 487.22 159.32 487.00 162.93 487.00C167.12 487.00 168.00 486.08 165.67 484.14C163.66 482.47 139.00 482.91 139.00 484.61C139.00 486.59 145.54 487.39 150.46 486.01C155.01 484.74 157.18 485.19 156.54 487.28C156.33 487.95 155.90 489.85 155.57 491.50C155.09 493.90 155.19 494.15 156.04 492.75C156.62 491.79 157.78 491.00 158.62 491.00ZM184.50 486.00C184.16 485.45 183.46 485.00 182.95 485.00C182.44 485.00 181.23 484.33 180.26 483.52C179.29 482.70 177.72 481.47 176.76 480.77C175.80 480.07 174.62 477.34 174.13 474.70C173.23 469.87 172.44 468.22 171.47 469.19C171.18 469.49 171.41 470.94 171.97 472.43C172.54 473.91 173.00 476.45 173.00 478.07C173.00 479.68 173.37 481.00 173.81 481.00C174.26 481.00 175.50 481.79 176.56 482.76C179.75 485.66 185.82 488.14 184.50 486.00ZM188.83 483.00C189.17 479.48 187.38 475.00 185.63 475.00C185.02 475.00 185.09 475.49 185.80 476.20C187.31 477.71 187.37 481.00 185.88 481.00C185.10 481.00 185.13 481.45 185.99 482.49C186.67 483.31 186.95 484.69 186.61 485.57C186.22 486.59 186.45 487.02 187.25 486.76C187.94 486.53 188.65 484.84 188.83 483.00ZM207.42 483.39C210.21 482.32 209.12 481.40 204.75 481.14C199.18 480.82 199.07 480.66 198.10 471.42L197.27 463.50L197.13 471.60C196.98 481.08 197.99 482.64 205.17 483.88C205.54 483.95 206.55 483.73 207.42 483.39ZM138.54 462.75C138.58 450.62 139.06 445.35 140.91 437.00C143.10 427.06 143.16 425.78 142.07 413.00C141.44 405.57 140.84 389.76 140.75 377.85C140.57 354.97 141.06 352.26 145.18 353.34C146.18 353.60 147.00 353.40 147.00 352.91C147.00 352.41 146.44 351.97 145.75 351.92C144.17 351.83 141.30 351.29 138.23 350.52C136.51 350.09 136.04 350.26 136.58 351.12C136.99 351.79 137.39 361.14 137.47 371.91C137.55 382.69 138.20 399.52 138.90 409.33C140.17 427.13 139.97 431.31 137.03 447.50C135.43 456.31 136.04 478.00 137.89 478.00C138.22 478.00 138.52 471.14 138.54 462.75ZM175.96 459.20C179.96 459.46 180.54 459.80 180.80 462.00C181.20 465.34 181.94 467.40 182.53 466.80C182.79 466.54 182.58 464.06 182.06 461.30C181.16 456.56 181.33 455.81 185.05 448.14C187.22 443.66 189.00 439.54 189.00 438.99C189.00 438.43 189.41 437.19 189.91 436.24C190.41 435.28 191.47 432.27 192.27 429.55C193.79 424.33 195.52 422.67 196.30 425.69C196.56 426.69 196.84 422.32 196.94 416.00C197.03 409.68 197.23 395.05 197.39 383.50C197.54 371.95 197.96 359.12 198.31 355.00C198.75 349.70 198.69 348.67 198.07 351.50C195.77 362.09 194.97 373.50 194.96 395.93C194.95 409.37 194.56 420.84 194.10 421.43C193.63 422.02 192.01 426.10 190.49 430.50C188.98 434.90 187.16 439.85 186.46 441.50C185.76 443.15 184.39 446.41 183.40 448.75C181.81 452.53 181.25 453.00 178.33 453.00C174.49 453.00 173.33 450.40 174.45 444.39C174.85 442.26 174.75 441.04 174.20 441.38C173.69 441.69 173.00 443.65 172.66 445.73C172.33 447.80 171.40 453.01 170.60 457.31C169.80 461.60 168.91 468.13 168.62 471.81C168.17 477.55 168.33 477.12 169.75 468.70L171.41 458.91L175.96 459.20ZM228.33 453.00C228.69 443.00 228.58 437.29 228.04 438.50C227.20 440.36 226.56 470.84 227.37 469.92C227.57 469.69 228.00 462.07 228.33 453.00ZM238.99 450.18C238.99 448.90 239.95 444.00 241.11 439.28C242.97 431.73 243.11 429.57 242.26 421.11L241.30 411.50L241.15 422.63C241.05 430.32 240.50 434.95 239.38 437.62C237.62 441.83 234.95 456.69 235.10 461.50C235.16 463.90 235.56 463.29 237.08 458.50C238.12 455.20 238.98 451.45 238.99 450.18ZM196.52 454.25C195.49 447.44 194.68 450.03 195.60 457.19C196.05 460.72 196.57 462.44 196.79 461.09C197.00 459.77 196.88 456.69 196.52 454.25ZM202.10 442.28C201.15 440.66 201.06 440.69 201.03 442.67C201.01 443.86 201.33 445.66 201.74 446.67C202.41 448.32 202.51 448.28 202.81 446.28C202.99 445.06 202.67 443.26 202.10 442.28ZM226.98 433.25C226.99 432.01 227.40 431.00 227.88 431.00C228.37 431.00 229.01 429.99 229.31 428.75C229.61 427.51 230.83 423.12 232.03 419.00C233.22 414.88 234.49 408.90 234.85 405.72C235.54 399.63 237.03 397.99 238.19 402.07C238.57 403.41 239.35 406.07 239.91 408.00L240.94 411.50L240.40 407.50C240.10 405.30 239.54 397.43 239.15 390.00C238.37 374.95 237.29 374.95 235.08 390.00C233.94 397.67 229.11 420.08 228.07 422.50C226.87 425.28 223.00 438.34 223.02 439.53C223.07 441.56 226.96 435.39 226.98 433.25ZM177.04 432.00C177.68 429.52 178.54 424.80 178.95 421.50C179.36 418.20 180.44 413.53 181.35 411.12C183.39 405.73 183.39 404.93 181.36 407.50C179.90 409.35 179.84 408.85 180.48 401.00C180.86 396.32 180.87 392.80 180.51 393.17C179.54 394.13 177.02 415.40 177.01 422.69C177.00 426.10 176.55 429.16 176.00 429.50C175.45 429.84 175.00 430.95 175.00 431.98C175.00 433.00 174.47 434.01 173.82 434.23C173.11 434.46 172.93 435.36 173.35 436.48C174.33 439.03 175.64 437.44 177.04 432.00ZM186.35 393.96C186.68 392.06 186.07 393.20 184.99 396.50C183.91 399.80 183.05 402.95 183.08 403.50C183.18 405.10 185.69 397.76 186.35 393.96ZM189.52 383.60C191.20 377.14 191.40 374.00 190.13 374.00C189.65 374.00 188.98 376.14 188.65 378.75C188.31 381.36 187.75 385.07 187.39 387.00C186.41 392.33 187.84 390.04 189.52 383.60ZM241.99 366.00C243.08 365.45 244.83 365.00 245.88 365.00C247.64 365.00 249.62 362.29 248.60 361.27C247.79 360.46 234.95 367.11 235.53 368.04C235.87 368.59 236.87 368.57 238.05 367.98C239.12 367.44 240.89 366.55 241.99 366.00ZM190.00 366.10C190.00 365.61 187.97 365.04 185.50 364.84C182.36 364.59 181.00 364.87 181.00 365.74C181.00 366.57 182.55 367.00 185.50 367.00C187.97 367.00 190.00 366.60 190.00 366.10ZM284.11 340.28C284.04 333.11 281.71 317.96 280.34 315.74C279.04 313.64 278.41 316.46 279.22 320.71C279.72 323.35 280.51 331.57 280.97 339.00C281.95 354.79 281.84 354.19 283.16 351.00C283.73 349.62 284.16 344.80 284.11 340.28ZM136.96 334.55C137.04 328.86 135.22 333.49 134.63 340.50L134.03 347.50L135.47 342.50C136.26 339.75 136.93 336.17 136.96 334.55ZM190.40 344.75C191.20 343.51 193.95 337.10 196.51 330.50C199.08 323.90 201.61 317.59 202.13 316.49C202.66 315.38 203.19 312.76 203.33 310.65C203.57 306.83 206.76 303.07 209.82 303.02C210.72 303.01 210.92 302.29 210.45 300.75C209.58 297.89 209.58 297.80 210.20 296.00C210.49 295.18 211.14 293.15 211.64 291.50C212.14 289.85 213.21 288.50 214.02 288.50C216.06 288.50 216.51 295.26 214.71 298.87C213.31 301.68 213.32 301.70 216.28 301.36C218.57 301.09 220.16 301.82 223.09 304.46C225.19 306.36 228.73 308.84 230.95 309.98C233.18 311.11 235.00 312.29 235.00 312.59C235.00 312.90 232.30 315.78 229.00 319.00C222.97 324.88 222.26 326.28 223.94 328.94C225.22 330.96 226.89 329.34 230.38 322.65C234.28 315.19 240.72 312.42 245.47 316.15C247.90 318.07 248.64 318.20 251.34 317.18C256.31 315.30 260.70 318.93 266.49 329.68C269.10 334.53 271.38 338.66 271.55 338.85C272.11 339.47 276.94 335.54 276.97 334.44C276.99 333.85 276.21 332.50 275.25 331.44C274.29 330.37 272.84 328.22 272.04 326.67C271.23 325.11 269.09 322.53 267.29 320.95C265.48 319.36 264.00 317.89 264.00 317.69C264.00 317.49 265.81 316.72 268.01 316.00C272.65 314.46 280.00 308.54 280.00 306.34C280.00 305.51 282.58 302.43 285.74 299.49C288.90 296.55 291.23 293.89 290.92 293.59C290.61 293.28 288.30 294.93 285.78 297.26C283.26 299.59 279.47 302.40 277.35 303.49C275.23 304.59 273.27 305.72 273.00 306.01C270.69 308.46 256.60 310.27 254.69 308.36C254.34 308.01 251.45 307.60 248.28 307.45C245.10 307.31 240.93 306.41 239.00 305.45C233.13 302.53 221.00 294.70 221.00 293.83C221.00 293.37 220.16 293.00 219.12 293.00C217.45 293.00 217.27 292.27 217.48 286.25C217.83 276.18 218.97 271.00 220.85 271.00C222.92 271.00 235.92 267.14 238.45 265.78C239.87 265.02 240.52 265.05 240.80 265.89C241.44 267.83 248.69 271.00 252.49 271.00C257.02 271.00 262.33 268.79 266.39 265.23C270.91 261.26 278.23 261.73 280.04 266.09C281.20 268.90 283.00 270.06 283.00 268.00C283.00 267.45 282.55 267.00 282.00 267.00C281.45 267.00 281.00 266.10 281.00 265.00C281.00 263.44 281.67 263.00 284.00 263.00C287.84 263.00 287.84 263.00 282.42 257.58C277.33 252.49 275.77 251.61 278.91 255.62C281.74 259.21 280.72 260.16 274.91 259.39C270.45 258.80 269.74 258.99 267.73 261.26C266.50 262.65 263.10 264.99 260.17 266.45C254.51 269.28 254.66 269.31 249.64 264.82C248.20 263.52 247.36 263.38 246.01 264.22C245.05 264.82 243.48 265.01 242.52 264.65C239.88 263.63 242.59 260.75 245.39 261.58C247.42 262.19 247.43 262.15 245.71 260.36C244.56 259.16 243.67 258.87 243.21 259.55C242.82 260.12 241.07 261.60 239.32 262.82C236.10 265.07 234.37 264.61 236.05 261.95C236.56 261.15 236.96 259.82 236.94 259.00C236.93 258.17 236.28 258.68 235.49 260.13C234.66 261.67 232.90 262.99 231.28 263.30C229.75 263.59 226.70 264.36 224.50 264.99C222.30 265.63 216.66 266.73 211.96 267.44C207.27 268.15 202.32 269.07 200.96 269.48C194.21 271.52 182.75 277.25 182.22 278.84C182.01 279.48 184.58 278.59 187.94 276.87C192.62 274.47 196.08 273.55 202.77 272.90C207.57 272.44 212.72 271.84 214.21 271.56C217.67 270.93 218.26 271.94 216.45 275.44C215.65 276.97 214.99 279.64 214.98 281.36C214.96 285.16 212.46 288.43 200.67 300.07C195.50 305.18 190.73 309.02 189.17 309.34C187.70 309.64 185.22 310.19 183.67 310.57C182.11 310.95 179.18 310.78 177.17 310.18C175.15 309.59 172.27 308.85 170.77 308.54C167.76 307.91 159.30 299.68 158.42 296.51C158.11 295.40 157.03 292.25 156.01 289.50C154.99 286.75 153.86 282.73 153.50 280.57C152.76 276.14 151.19 277.30 151.47 282.07C151.89 289.04 152.06 289.92 153.25 291.18C154.60 292.61 157.00 298.84 157.00 300.93C157.00 301.63 158.35 303.92 160.00 306.00C163.39 310.28 164.07 312.52 160.96 309.19C159.84 307.98 158.49 307.00 157.96 307.00C155.94 307.00 157.14 310.28 160.42 313.75L163.83 317.38L173.45 317.18C178.74 317.06 183.84 316.56 184.78 316.06C185.73 315.56 187.18 314.87 188.00 314.53C188.82 314.20 190.62 313.27 192.00 312.48C194.37 311.12 194.52 311.18 194.82 313.60C195.00 315.01 194.21 318.14 193.07 320.57C191.93 322.99 191.00 325.36 191.00 325.84C191.00 326.31 190.37 328.00 189.60 329.60C182.73 343.85 182.67 344.03 184.65 345.53C187.28 347.53 188.74 347.33 190.40 344.75ZM201.62 337.15C202.46 333.66 202.91 330.57 202.62 330.29C202.33 330.00 201.81 331.05 201.47 332.63C201.12 334.21 200.42 336.80 199.92 338.40C199.41 339.99 199.05 342.69 199.12 344.40C199.19 346.37 199.39 346.77 199.67 345.50C199.91 344.40 200.79 340.64 201.62 337.15ZM146.62 317.00C148.88 313.97 151.53 310.15 152.50 308.50L154.27 305.50L151.38 308.63C148.08 312.21 142.15 320.31 140.13 324.00C138.77 326.47 138.78 326.48 140.63 324.50C141.66 323.39 144.35 320.02 146.62 317.00ZM207.00 318.39C207.00 317.57 207.90 315.05 208.99 312.78C210.09 310.51 210.76 308.43 210.49 308.16C209.68 307.35 209.02 308.47 206.96 314.11C204.75 320.16 204.56 321.39 206.00 320.50C206.55 320.16 207.00 319.21 207.00 318.39ZM299.76 283.35C301.01 283.03 302.58 283.23 303.26 283.79C305.19 285.37 320.45 288.36 323.12 287.67C325.96 286.94 331.88 281.74 334.86 277.35C337.25 273.83 337.46 273.00 336.00 273.00C335.45 273.00 335.00 273.63 335.00 274.41C335.00 275.18 332.70 277.88 329.89 280.41C324.01 285.69 322.67 285.89 312.24 283.00C308.27 281.90 303.89 281.00 302.50 281.00C301.11 281.00 299.19 280.59 298.24 280.10C297.28 279.60 294.52 278.61 292.10 277.89C289.45 277.10 287.52 275.87 287.24 274.79C286.98 273.81 286.37 273.00 285.88 273.00C282.93 273.00 287.71 278.66 292.17 280.45C296.30 282.11 296.35 282.25 294.53 287.50C294.12 288.68 294.59 288.35 295.67 286.71C296.68 285.17 298.52 283.66 299.76 283.35ZM291.88 268.12C289.52 265.89 287.38 264.28 287.13 264.54C286.87 264.79 288.62 266.80 291.00 269.00C293.38 271.20 295.52 272.81 295.75 272.58C295.98 272.35 294.24 270.34 291.88 268.12ZM338.70 260.88L338.45 249.76L335.04 246.40C333.17 244.55 331.38 243.29 331.07 243.61C330.75 243.92 331.68 245.15 333.12 246.34C336.88 249.43 337.98 252.10 337.16 256.07C336.24 260.46 336.90 272.00 338.07 272.00C338.56 272.00 338.85 267.00 338.70 260.88ZM246.51 268.02C245.77 266.82 246.71 265.00 248.06 265.00C249.28 265.00 249.28 267.71 248.07 268.46C247.56 268.77 246.86 268.58 246.51 268.02ZM158.10 258.76C159.25 256.54 159.27 252.00 158.13 252.00C157.65 252.00 156.95 253.91 156.58 256.25C156.21 258.59 155.69 261.62 155.43 263.00L154.96 265.50L156.08 263.00C156.70 261.62 157.61 259.72 158.10 258.76ZM226.80 256.47C226.51 256.17 222.49 255.53 217.88 255.04C213.27 254.55 208.26 253.83 206.75 253.46C205.20 253.07 204.00 253.18 204.00 253.72C204.00 254.24 206.14 255.13 208.75 255.69C213.76 256.78 227.71 257.38 226.80 256.47ZM252.00 250.51C255.63 249.74 259.28 248.08 257.46 248.03C255.35 247.97 244.57 251.11 243.32 252.15C240.90 254.16 243.13 255.05 245.82 253.14C247.29 252.10 250.07 250.92 252.00 250.51ZM272.49 248.98C272.15 248.44 269.55 248.01 266.69 248.02C260.47 248.03 261.96 249.48 268.50 249.76C271.29 249.88 272.86 249.58 272.49 248.98ZM163.90 234.50C169.29 222.53 169.78 221.00 168.25 221.00C167.24 221.00 163.39 229.80 160.42 238.88C157.32 248.34 157.38 250.21 160.54 242.50C161.89 239.20 163.41 235.60 163.90 234.50ZM301.50 243.02C303.70 242.33 308.20 241.44 311.50 241.04C317.25 240.34 317.31 240.30 313.00 240.15C308.75 240.00 295.05 242.18 288.50 244.05C286.20 244.70 286.89 244.83 291.50 244.58C294.80 244.40 299.30 243.70 301.50 243.02ZM284.38 241.96C293.29 239.21 296.21 236.58 296.36 231.21C296.46 227.17 296.60 226.99 300.48 226.12L304.50 225.21L300.75 225.11C298.69 225.05 297.00 224.55 297.00 224.00C297.00 223.45 296.55 223.00 296.00 223.00C295.44 223.00 295.00 225.83 295.00 229.49L295.00 235.97L291.38 237.49C289.39 238.32 286.43 239.00 284.81 239.00C283.18 239.00 281.18 239.68 280.36 240.50C278.21 242.65 275.00 242.42 275.00 240.11C275.00 237.79 272.51 232.82 271.74 233.60C271.43 233.91 271.74 235.59 272.44 237.33C273.13 239.07 273.98 241.29 274.32 242.25C275.11 244.48 276.33 244.45 284.38 241.96ZM330.09 236.12C328.93 234.68 327.56 232.53 327.05 231.34C326.54 230.15 324.63 228.03 322.81 226.63C313.09 219.14 307.45 215.23 307.00 215.68C306.18 216.52 314.17 223.04 318.58 225.13C321.33 226.43 323.44 228.45 325.02 231.28C326.31 233.60 328.18 236.09 329.18 236.81C330.18 237.53 331.05 239.10 331.12 240.31C331.22 242.19 331.30 242.23 331.71 240.62C331.98 239.58 331.25 237.57 330.09 236.12ZM261.09 234.38C264.61 233.80 264.68 233.69 264.54 229.42C264.34 223.47 263.00 222.52 263.00 228.33L263.00 233.00L249.75 232.98C237.63 232.97 230.55 231.88 228.35 229.69C227.98 229.31 227.09 229.00 226.38 229.00C225.67 229.00 222.73 227.61 219.85 225.91C216.89 224.16 215.22 223.56 216.01 224.51C216.78 225.45 218.48 226.61 219.77 227.10C222.77 228.24 221.58 230.36 218.39 229.56C217.04 229.22 216.00 229.41 216.00 229.98C216.00 230.54 218.14 231.01 220.75 231.01C223.36 231.02 228.20 231.88 231.50 232.92C237.62 234.86 253.50 235.64 261.09 234.38ZM277.48 232.09C279.00 231.49 279.46 230.36 279.48 227.16C279.50 222.48 277.69 222.03 277.17 226.58C276.98 228.18 276.13 230.29 275.26 231.25C273.60 233.10 274.24 233.35 277.48 232.09ZM288.64 217.69C288.79 215.29 293.79 203.80 295.04 203.00C296.73 201.90 299.39 193.63 298.18 193.23C296.75 192.75 296.59 190.00 298.00 190.00C298.55 190.00 299.00 190.48 299.00 191.06C299.00 191.64 299.45 191.84 300.00 191.50C301.39 190.64 301.26 185.25 299.83 184.78C298.95 184.48 298.95 183.59 299.83 181.05C301.53 176.18 301.27 173.07 298.73 168.00C295.53 161.58 293.69 159.00 292.34 159.00C291.70 159.00 290.99 158.48 290.78 157.85C289.85 155.04 267.00 157.22 267.00 160.12C267.00 160.60 266.35 161.00 265.55 161.00C264.75 161.00 263.35 162.57 262.43 164.50C261.52 166.43 260.37 168.00 259.89 168.00C259.40 168.00 259.00 169.32 259.00 170.94C259.00 172.56 258.55 174.16 258.00 174.50C256.80 175.24 256.66 180.67 257.83 181.39C258.28 181.67 258.76 184.51 258.88 187.70C259.01 190.89 259.54 193.93 260.06 194.45C260.58 194.97 261.01 196.55 261.02 197.95C261.02 199.35 261.47 201.18 262.00 202.00C262.83 203.28 262.97 203.25 262.98 201.75C263.00 200.48 263.82 200.00 266.00 200.00C268.00 200.00 269.00 199.50 269.00 198.50C269.00 197.68 268.41 197.00 267.69 197.00C266.97 197.00 265.29 195.99 263.96 194.75C262.63 193.51 261.31 192.50 261.02 192.50C260.33 192.50 260.83 177.84 261.55 177.12C261.86 176.81 262.42 177.04 262.80 177.63C265.90 182.40 274.08 182.11 280.50 177.00C283.25 174.81 286.01 173.02 286.63 173.01C288.93 172.99 289.90 175.51 289.04 179.31C287.95 184.15 288.61 186.45 291.54 188.02C293.53 189.09 294.32 189.02 296.45 187.62C297.85 186.70 299.00 186.38 299.00 186.91C299.00 187.44 298.10 188.15 297.00 188.50C295.90 188.85 295.00 189.58 295.00 190.13C295.00 190.67 294.55 190.84 294.00 190.50C292.87 189.80 292.62 192.28 293.70 193.37C294.09 193.76 294.56 195.22 294.75 196.62C295.04 198.79 294.79 199.07 293.05 198.51C291.69 198.08 291.00 198.31 291.01 199.18C291.01 199.91 288.67 202.64 285.81 205.25C281.39 209.28 280.94 210.00 282.84 210.00C285.07 210.00 285.07 210.01 283.12 212.10C280.15 215.29 276.20 217.00 271.83 217.00C269.45 217.00 268.13 217.40 268.50 218.00C268.84 218.55 271.58 219.00 274.59 219.00C278.32 219.00 280.23 219.44 280.59 220.38C281.50 222.74 288.47 220.42 288.64 217.69ZM186.20 214.58C187.53 212.62 186.12 212.81 183.88 214.90C182.64 216.05 181.27 217.00 180.85 217.00C180.42 217.00 179.53 218.01 178.87 219.25C177.79 221.27 178.05 221.20 181.58 218.55C183.74 216.93 185.81 215.14 186.20 214.58ZM297.64 218.15C296.63 217.04 296.20 215.53 296.58 214.39C296.93 213.35 296.33 213.85 295.27 215.50L293.32 218.50L295.66 218.82C296.95 218.99 298.00 219.63 298.00 220.23C298.00 220.84 298.30 221.04 298.66 220.67C299.02 220.31 298.56 219.17 297.64 218.15ZM213.00 216.50C213.00 215.42 214.11 215.00 217.00 215.00C219.57 215.00 221.00 214.55 221.00 213.73C221.00 213.03 222.29 210.89 223.86 208.98C228.19 203.71 228.77 201.00 225.57 201.00C223.67 201.00 223.00 201.52 223.00 203.00C223.00 204.47 222.33 205.00 220.50 205.00C219.12 205.00 218.00 205.45 218.00 206.00C218.00 206.55 218.79 207.01 219.75 207.02C221.13 207.03 221.21 207.21 220.12 207.90C219.36 208.38 219.00 209.19 219.31 209.69C219.62 210.19 219.50 211.19 219.06 211.91C217.63 214.22 211.20 211.02 206.69 205.76C204.46 203.14 202.26 201.00 201.81 201.00C199.87 201.00 201.25 206.06 204.00 209.00C205.65 210.77 207.00 212.67 207.00 213.24C207.00 214.41 210.88 218.00 212.15 218.00C212.62 218.00 213.00 217.32 213.00 216.50ZM175.32 213.75C175.97 213.06 178.53 209.80 181.00 206.50C183.47 203.20 186.23 199.96 187.11 199.29C188.90 197.95 191.56 192.22 190.76 191.43C190.48 191.15 188.54 193.52 186.44 196.71C184.35 199.89 182.37 202.72 182.05 203.00C180.12 204.67 173.00 213.43 173.00 214.14C173.00 215.36 173.95 215.20 175.32 213.75ZM191.23 213.62C192.90 212.36 192.66 211.00 190.77 211.00C190.28 211.00 190.21 211.53 190.61 212.17C191.08 212.93 190.80 213.14 189.83 212.77C188.94 212.42 188.33 212.76 188.33 213.60C188.33 215.32 188.99 215.33 191.23 213.62ZM301.45 208.94C300.48 207.87 299.03 207.00 298.22 207.00C297.27 207.00 297.76 207.97 299.62 209.75C302.77 212.75 304.29 212.08 301.45 208.94ZM274.00 208.03C274.00 206.86 267.13 206.98 266.40 208.16C266.11 208.62 267.71 209.00 269.94 209.00C272.17 209.00 274.00 208.56 274.00 208.03ZM280.75 199.06C282.04 199.03 283.00 198.37 283.00 197.52C283.00 196.33 282.05 196.16 278.25 196.64C272.14 197.42 269.03 199.84 274.69 199.41C276.78 199.25 279.51 199.09 280.75 199.06ZM231.00 194.63C231.00 193.33 231.95 191.06 233.11 189.58C236.37 185.45 234.45 185.23 230.51 189.29C227.13 192.77 226.26 194.93 227.67 196.33C229.14 197.81 231.00 196.86 231.00 194.63ZM197.00 194.58C197.00 194.35 197.27 193.45 197.61 192.58C198.01 191.54 197.66 191.00 196.58 191.00C193.21 191.00 191.74 182.52 195.07 182.27C196.84 182.14 197.04 182.52 196.51 184.96C196.15 186.58 196.34 188.09 196.94 188.46C197.62 188.88 198.00 187.66 198.00 185.06C198.00 182.12 197.59 181.00 196.50 181.00C195.68 181.00 195.00 180.54 195.00 179.98C195.00 179.43 196.46 179.03 198.25 179.11C203.67 179.35 204.97 179.97 204.73 182.20C204.34 185.73 206.64 185.27 208.95 181.36C211.72 176.66 211.82 175.24 209.65 170.67C208.68 168.64 208.20 166.48 208.57 165.88C209.03 165.14 208.47 165.00 206.88 165.44C204.58 166.08 204.57 166.05 206.44 164.55C207.94 163.35 208.56 163.28 209.15 164.24C209.76 165.23 210.17 165.23 211.16 164.24C212.15 163.25 212.14 163.00 211.14 163.00C210.45 163.00 210.19 162.50 210.57 161.89C211.05 161.11 211.49 161.17 212.05 162.08C212.70 163.13 213.14 163.13 214.44 162.05C215.82 160.90 216.60 161.29 220.10 164.86C222.33 167.14 224.91 169.00 225.83 169.00C226.75 169.01 229.03 169.94 230.90 171.08C234.39 173.21 235.95 172.61 235.98 169.09C236.01 166.80 231.26 161.28 226.36 157.90C222.27 155.09 221.24 154.81 216.85 155.33C213.83 155.69 212.16 155.54 212.53 154.96C213.28 153.73 208.88 153.72 205.68 154.93C202.24 156.24 196.82 162.22 198.01 163.41C198.60 164.00 199.64 163.73 200.81 162.68C201.82 161.75 203.30 161.01 204.08 161.03C205.16 161.06 205.08 161.38 203.77 162.38C202.81 163.11 202.36 164.03 202.76 164.43C204.01 165.68 200.14 167.75 197.50 167.24C195.10 166.79 195.00 166.97 195.00 171.82C195.00 174.61 194.52 177.18 193.94 177.54C191.67 178.94 190.82 183.40 192.09 187.25C192.76 189.31 193.70 191.00 194.16 191.00C194.62 191.00 195.00 191.90 195.00 193.00C195.00 194.10 195.45 195.00 196.00 195.00C196.55 195.00 197.00 194.81 197.00 194.58ZM223.25 191.06C227.46 188.95 226.19 185.00 221.30 185.00C218.57 185.00 218.30 186.75 220.75 188.61C222.42 189.87 222.42 189.94 220.75 189.97C219.79 189.99 219.00 190.71 219.00 191.58C219.00 192.45 219.34 193.00 219.75 192.80C220.16 192.60 221.74 191.82 223.25 191.06ZM235.00 180.00C235.00 177.80 234.65 176.00 234.22 176.00C233.80 176.00 233.62 177.80 233.83 180.00C234.04 182.20 234.39 184.00 234.61 184.00C234.82 184.00 235.00 182.20 235.00 180.00ZM287.25 171.78C284.35 170.38 284.42 169.77 287.70 168.25C289.76 167.30 290.56 167.28 291.12 168.19C291.67 169.08 292.24 169.05 293.45 168.04C295.65 166.22 296.77 167.65 294.74 169.69C293.37 171.05 292.84 171.11 291.53 170.02C290.66 169.30 289.63 169.07 289.23 169.49C288.83 169.92 289.06 170.47 289.75 170.72C291.09 171.20 291.50 173.05 290.25 172.93C289.84 172.90 288.49 172.38 287.25 171.78ZM281.00 165.58C281.00 164.80 280.44 163.96 279.75 163.70C278.80 163.35 278.86 162.87 280.00 161.70C281.48 160.19 283.63 159.66 287.44 159.88C289.36 160.00 289.36 160.02 287.44 161.57C285.59 163.06 285.64 163.11 288.50 162.56C291.37 162.01 291.40 162.04 289.24 163.28C287.53 164.27 287.26 164.86 288.14 165.74C289.02 166.62 288.79 166.86 287.22 166.74C286.07 166.66 285.39 166.18 285.69 165.69C285.99 165.20 285.32 165.30 284.19 165.90C281.50 167.34 281.00 167.29 281.00 165.58Z" fill="currentColor" fill-rule="evenodd"/></svg>