<svg xmlns="http://www.w3.org/2000/svg" viewBox="0 0 472 580" width="472" height="580"><path d="M175.50 564.79C182.28 562.85 184.37 560.23 181.45 557.31C180.05 555.91 179.96 556.00 180.53 558.27C181.31 561.38 179.76 562.49 177.01 560.78C175.43 559.80 174.76 559.78 174.20 560.69C173.18 562.33 168.47 564.00 164.88 564.00C162.94 564.00 160.77 562.95 158.70 561.00C155.39 557.91 154.00 557.30 154.00 558.96C154.00 560.67 160.89 565.48 164.23 566.11C167.73 566.75 169.23 566.58 175.50 564.79ZM144.36 553.50C139.28 550.45 138.74 549.17 139.87 542.78C139.94 542.38 141.46 541.60 143.25 541.03C146.37 540.05 146.33 540.03 142.25 540.52C138.22 541.00 138.00 540.89 138.00 538.45C138.00 536.99 137.57 536.15 137.00 536.50C135.69 537.31 135.70 542.00 137.02 542.00C137.61 542.00 137.77 543.06 137.41 544.50C136.06 549.87 140.88 555.95 146.50 555.97C147.92 555.98 147.30 555.26 144.36 553.50ZM189.66 546.14C193.04 542.94 197.32 539.76 199.16 539.08C207.52 535.96 213.08 530.19 216.33 521.24C217.28 518.63 219.58 514.75 221.44 512.62C224.35 509.27 226.53 504.21 225.50 503.17C225.33 502.99 223.99 505.22 222.53 508.12C221.08 511.02 219.06 513.97 218.06 514.67C216.14 516.02 211.00 525.11 211.00 527.18C211.00 528.84 205.93 534.00 204.30 534.00C203.57 534.00 202.12 533.47 201.07 532.81C199.49 531.83 198.61 532.06 195.79 534.21C189.96 538.65 185.00 544.12 185.00 546.10C185.00 547.14 184.61 548.00 184.12 548.00C182.72 548.00 180.77 545.18 181.43 544.11C182.65 542.14 178.67 536.25 174.08 533.25C171.38 531.48 166.89 529.71 163.52 529.09C157.67 528.01 155.00 528.23 158.92 529.48C161.70 530.36 161.55 530.85 157.00 535.47C154.86 537.65 153.35 539.68 153.65 539.97C153.96 540.26 155.87 538.57 157.92 536.21C161.18 532.44 162.08 531.94 165.31 532.16C167.54 532.31 169.00 532.92 169.00 533.70C169.00 534.42 169.44 535.00 169.98 535.00C170.52 535.00 171.24 536.12 171.59 537.50C171.93 538.88 172.62 540.00 173.11 540.00C173.60 540.00 174.00 540.93 174.00 542.06C174.00 543.23 173.55 543.84 172.96 543.47C172.38 543.12 171.25 543.37 170.45 544.04C169.57 544.77 167.49 545.04 165.24 544.71C161.97 544.23 161.82 544.29 164.00 545.20C165.38 545.77 168.15 547.09 170.16 548.13C173.79 550.01 173.82 550.01 173.29 548.01C172.85 546.32 173.25 546.00 175.82 546.00C178.90 546.00 180.91 548.72 179.51 550.99C179.15 551.56 179.89 551.99 181.19 551.98C182.61 551.96 185.87 549.71 189.66 546.14ZM254.50 549.00C254.84 548.44 256.11 548.22 257.31 548.51C260.20 549.18 261.03 548.50 265.20 542.00C267.15 538.98 269.69 535.42 270.87 534.10C272.04 532.78 273.00 531.07 273.00 530.31C273.00 526.96 276.19 524.09 280.66 523.42C285.25 522.74 290.00 519.22 290.00 516.51C290.00 513.62 283.11 508.00 279.57 508.00C276.90 508.00 277.84 509.55 280.65 509.78C289.03 510.48 287.45 520.00 278.95 520.00C275.63 520.00 274.94 520.37 274.42 522.46C274.08 523.81 273.17 525.44 272.40 526.08C271.63 526.72 271.00 528.05 271.00 529.03C271.00 530.95 262.99 543.86 261.75 543.95C260.63 544.03 260.84 540.21 262.00 539.50C262.55 539.16 262.99 538.12 262.98 537.19C262.96 535.87 262.53 536.05 261.00 538.00C259.92 539.38 259.03 540.83 259.02 541.24C259.01 541.65 257.59 543.33 255.86 544.99C253.04 547.68 252.59 547.82 251.52 546.36C250.87 545.46 250.53 543.67 250.78 542.36C251.11 540.67 250.78 540.00 249.62 540.00C248.73 540.00 248.00 539.59 248.00 539.09C248.00 538.60 247.05 538.44 245.89 538.74C244.05 539.22 243.86 538.98 244.47 536.90C244.85 535.58 245.40 533.66 245.69 532.62C246.01 531.49 245.81 531.00 245.18 531.39C244.62 531.74 243.84 533.47 243.45 535.23C243.06 536.99 242.24 539.25 241.62 540.25C240.31 542.36 242.72 544.68 244.44 542.96C244.97 542.43 246.30 542.00 247.40 542.00C248.96 542.00 249.13 542.27 248.20 543.20C246.29 545.11 246.79 546.82 249.75 548.43C253.06 550.22 253.70 550.30 254.50 549.00ZM256.00 539.50C256.64 537.58 257.57 536.00 258.08 536.00C258.58 536.00 259.00 535.55 259.00 535.00C259.00 531.99 256.78 534.77 253.19 542.25C253.00 542.66 253.29 543.00 253.84 543.00C254.39 543.00 255.36 541.42 256.00 539.50ZM253.26 534.30C255.46 529.45 254.86 529.12 251.06 533.09C248.75 535.52 248.28 536.56 249.22 537.16C251.21 538.42 251.48 538.24 253.26 534.30ZM288.79 529.21C289.50 528.28 291.52 526.82 293.29 525.97C296.29 524.53 296.48 524.12 296.26 519.79C296.04 515.34 296.17 515.10 299.34 514.05C301.16 513.45 304.15 511.41 305.99 509.51C309.31 506.08 312.35 505.62 315.50 508.05C317.58 509.66 323.49 510.12 325.13 508.81C328.79 505.87 328.21 502.79 322.96 497.25C319.49 493.60 318.00 491.19 317.99 489.26C317.97 485.50 316.95 482.00 315.88 482.00C315.40 482.00 315.00 484.15 315.00 486.78C315.00 493.14 306.93 508.99 303.68 509.01C299.97 509.02 294.91 511.26 295.06 512.81C295.15 513.74 295.18 516.63 295.12 519.23C295.01 523.65 294.76 524.08 291.25 525.83C289.19 526.86 284.69 528.31 281.25 529.06C277.81 529.80 275.00 530.78 275.00 531.22C275.00 532.81 287.44 530.99 288.79 529.21ZM154.57 525.68C158.86 523.30 162.56 520.83 162.77 520.18C163.35 518.44 160.43 519.76 153.50 524.36C142.79 531.47 143.19 531.97 154.57 525.68ZM101.25 521.88C97.38 520.77 97.05 518.75 100.47 517.20C103.53 515.80 115.20 504.87 114.45 504.11C114.14 503.81 113.58 503.99 113.20 504.53C110.06 508.91 102.73 514.00 99.56 514.00C93.32 514.00 92.56 519.65 98.47 522.05C99.58 522.50 101.40 522.86 102.50 522.85C103.66 522.83 103.14 522.43 101.25 521.88ZM239.00 521.86L236.50 520.86L238.75 519.02C241.37 516.88 241.59 516.00 239.52 516.00C237.68 516.00 234.60 520.54 235.47 521.96C235.83 522.53 237.33 522.97 238.81 522.94L241.50 522.87L239.00 521.86ZM116.40 520.04C118.92 518.96 124.17 517.84 128.07 517.55C140.04 516.66 143.31 513.37 139.51 506.03C137.26 501.67 139.37 482.88 141.93 484.46C144.24 485.89 146.21 482.12 146.60 475.54C146.82 471.78 147.41 468.20 147.91 467.60C148.41 466.99 149.22 464.96 149.71 463.07C151.29 456.94 152.80 458.29 160.36 472.60C162.53 476.71 163.60 476.56 161.91 472.38C158.07 462.87 154.23 457.00 151.85 457.00C151.19 457.00 151.34 456.12 152.23 454.75C154.01 452.01 155.61 426.00 154.00 426.00C153.18 426.00 152.31 444.82 152.91 449.67C153.21 452.12 151.03 451.97 150.41 449.50C148.64 442.46 145.46 452.04 143.42 470.53L142.75 476.57L139.37 476.17C137.50 475.96 135.73 475.38 135.43 474.89C135.13 474.40 134.12 473.99 133.19 473.98C132.26 473.97 130.38 473.08 129.00 472.00C125.99 469.64 122.52 469.32 123.35 471.47C124.25 473.82 122.41 474.16 118.61 472.35C114.51 470.40 113.09 468.00 116.03 468.00C117.11 468.00 118.00 468.45 118.00 469.00C118.00 469.55 118.90 470.00 120.00 470.00C121.10 470.00 122.00 469.55 122.00 469.00C122.00 468.45 121.19 468.00 120.20 468.00C119.21 468.00 117.86 467.46 117.21 466.81C116.55 466.15 113.76 465.65 111.00 465.69C105.40 465.78 104.39 465.02 106.02 461.97C106.63 460.82 106.94 459.35 106.70 458.69C106.47 458.04 105.60 459.07 104.79 461.00C103.01 465.20 103.38 466.63 106.45 467.40C108.31 467.86 121.20 475.10 122.94 476.65C123.18 476.87 123.28 481.20 123.16 486.27C123.01 492.76 123.24 495.06 123.96 494.00C124.51 493.18 124.98 488.76 124.98 484.18C125.00 474.78 124.57 475.03 133.74 479.14C138.63 481.33 139.68 483.87 138.08 489.63C136.70 494.63 136.69 507.55 138.07 510.13C139.40 512.62 137.53 515.30 135.01 514.50C132.82 513.81 118.76 515.79 118.04 516.89C117.46 517.79 113.48 519.27 111.00 519.51C105.93 520.01 105.53 520.25 108.50 521.00C110.15 521.42 111.58 521.82 111.67 521.88C111.76 521.95 113.89 521.12 116.40 520.04ZM169.00 519.00C170.17 518.24 169.89 518.03 167.75 518.02C165.22 518.00 165.00 517.69 165.00 514.08C165.00 508.85 167.74 498.25 170.10 494.38C172.36 490.67 172.44 490.00 170.62 490.00C169.81 490.00 169.25 488.94 169.25 487.42C169.25 484.58 167.14 480.00 165.83 480.00C164.54 480.00 164.91 482.29 166.54 484.45C168.12 486.54 167.83 490.28 165.51 497.50C163.74 503.00 162.68 513.25 163.49 516.94C164.18 520.11 166.15 520.84 169.00 519.00ZM224.59 518.39C226.06 518.02 227.00 517.05 227.00 515.91C227.00 514.73 228.50 513.27 231.08 511.96C234.20 510.37 235.00 509.48 234.45 508.19C231.89 502.10 234.17 498.22 238.14 501.92C239.37 503.06 241.53 504.00 242.94 504.01C244.35 504.02 247.19 504.30 249.25 504.64C252.30 505.15 253.00 504.96 253.00 503.63C253.00 502.73 253.38 502.00 253.83 502.00C255.45 502.00 255.86 503.23 254.99 505.52C254.16 507.72 254.26 507.78 257.19 506.94C261.26 505.78 261.59 505.32 258.94 504.48C257.24 503.94 257.05 503.59 258.11 502.93C261.26 500.98 253.75 498.07 245.44 498.02C239.32 497.99 237.39 496.17 238.93 491.90C241.63 484.43 242.83 478.16 242.89 471.25C242.94 464.95 242.72 464.00 241.17 464.00C240.20 464.00 238.89 464.51 238.27 465.13C236.74 466.66 233.89 465.46 234.60 463.60C234.91 462.78 236.14 461.98 237.33 461.81C239.10 461.56 239.43 460.95 239.15 458.52C238.70 454.68 235.03 446.75 233.19 445.63C232.40 445.16 232.17 444.48 232.67 444.13C233.17 443.78 236.85 439.12 240.85 433.77C244.84 428.42 248.70 423.69 249.43 423.27C250.15 422.85 253.35 420.14 256.54 417.25C259.73 414.36 262.94 412.00 263.67 412.00C264.40 412.00 265.00 411.60 265.00 411.12C265.00 409.94 269.27 408.87 270.21 409.81C270.62 410.22 269.84 411.85 268.48 413.43C264.47 418.09 265.65 418.84 269.97 414.39C273.89 410.35 283.00 398.51 283.00 397.45C283.00 397.15 284.20 395.71 285.66 394.25L288.32 391.59L287.73 394.04C285.07 405.06 286.45 408.03 289.45 397.75C290.45 394.31 292.06 389.93 293.04 388.00C294.01 386.07 295.35 382.93 296.02 381.00C296.69 379.07 297.82 376.15 298.54 374.50C299.26 372.85 300.73 369.25 301.82 366.50C305.92 356.10 315.06 340.57 318.01 338.99C319.65 338.12 324.57 338.63 332.50 340.51C333.60 340.77 333.94 340.72 333.25 340.41C330.80 339.28 332.08 336.02 337.50 329.63C342.04 324.27 343.01 322.48 343.03 319.32C343.06 315.78 344.80 312.00 346.40 312.00C347.52 312.00 365.00 295.74 365.00 294.70C365.00 293.08 358.97 294.86 357.00 297.06C355.97 298.21 351.52 301.00 350.72 301.00C350.26 301.00 350.20 300.44 350.58 299.75C350.96 299.06 348.16 301.54 344.36 305.25C336.92 312.52 336.00 313.05 336.00 310.06C336.00 306.97 334.45 306.83 331.62 309.65C329.12 312.15 327.90 315.80 330.00 314.50C330.55 314.16 331.00 313.29 331.00 312.56C331.00 310.51 333.66 308.64 334.54 310.06C334.93 310.70 334.71 311.56 334.05 311.97C333.38 312.38 332.99 313.99 333.17 315.55L333.50 318.38L336.97 314.69C341.35 310.03 341.64 310.07 341.15 315.25C340.82 318.65 339.76 320.57 335.87 324.83C333.19 327.77 330.71 331.37 330.36 332.83C329.49 336.47 328.13 338.00 325.75 338.00C324.07 338.00 323.84 337.53 324.34 335.04C324.67 333.41 324.49 331.80 323.95 331.47C323.41 331.14 323.23 330.44 323.54 329.93C323.86 329.42 323.70 329.00 323.19 329.00C322.69 329.00 322.32 330.69 322.39 332.75C322.49 336.28 322.31 336.52 319.24 336.81C315.95 337.13 312.44 341.42 308.02 350.50C307.22 352.15 305.38 355.30 303.95 357.50C302.51 359.70 299.81 364.76 297.94 368.75C293.48 378.30 292.17 378.42 276.24 370.72C272.79 369.05 270.22 367.45 270.51 367.16C271.30 366.37 264.82 359.99 263.84 360.60C262.51 361.42 262.82 362.29 265.60 365.50C267.03 367.15 268.72 369.18 269.35 370.00C269.98 370.82 272.86 372.62 275.73 374.00C278.61 375.38 280.98 377.05 280.98 377.73C280.99 378.41 279.50 381.33 277.66 384.23C273.38 390.99 265.82 406.16 266.44 406.77C267.03 407.37 265.42 408.92 261.00 412.02C255.65 415.77 254.04 417.09 248.22 422.50C241.01 429.20 234.09 436.41 232.18 439.21C228.32 444.85 226.52 445.61 220.99 443.95C215.79 442.38 207.74 441.16 206.28 441.72C204.12 442.55 204.86 444.00 207.43 444.00C208.77 444.00 210.95 444.41 212.28 444.91C213.60 445.42 216.89 445.95 219.59 446.09C226.50 446.46 226.65 446.55 229.89 452.94C232.52 458.11 232.69 459.03 231.66 462.34C231.03 464.35 230.17 466.00 229.76 466.00C229.34 466.00 229.00 467.02 229.00 468.28C229.00 470.51 232.06 474.00 234.01 474.00C234.56 474.00 235.00 474.51 235.00 475.14C235.00 476.90 231.06 490.28 229.97 492.24C228.69 494.52 228.72 503.00 230.00 503.00C230.55 503.00 231.00 503.68 231.00 504.50C231.00 505.32 231.45 506.00 232.00 506.00C232.55 506.00 233.00 506.83 233.00 507.84C233.00 509.12 231.78 510.05 229.00 510.88C226.18 511.73 225.00 512.63 225.00 513.96C225.00 515.08 223.80 516.37 222.00 517.16C218.95 518.51 217.68 520.72 220.59 519.60C221.47 519.27 223.27 518.72 224.59 518.39ZM264.74 516.48C266.42 515.64 268.34 514.29 269.02 513.48C270.07 512.21 269.65 512.00 266.12 512.00C263.86 512.00 262.00 511.55 262.00 511.00C262.00 510.45 260.99 510.03 259.75 510.06C257.58 510.12 257.58 510.16 259.53 510.95C263.34 512.49 264.56 514.86 262.40 516.50C259.91 518.39 260.94 518.38 264.74 516.48ZM252.53 512.64C257.11 510.32 257.14 510.26 254.42 509.74C251.50 509.18 245.59 512.52 246.60 514.16C247.30 515.30 247.25 515.31 252.53 512.64ZM316.25 506.75C312.71 505.62 312.37 504.38 314.20 499.32C315.68 495.23 318.32 494.98 321.68 498.60C323.53 500.59 323.82 501.51 322.96 502.55C322.34 503.29 322.13 504.83 322.48 505.95C323.23 508.29 321.67 508.49 316.25 506.75ZM203.51 502.01C202.51 500.90 201.23 500.00 200.67 500.00C200.11 500.00 200.71 501.12 202.00 502.50C204.75 505.42 206.18 504.96 203.51 502.01ZM121.80 499.24C122.55 498.55 123.01 497.64 122.83 497.21C122.65 496.79 120.93 498.26 119.01 500.47C115.89 504.08 117.18 503.51 121.80 499.24ZM268.50 502.00C270.46 500.90 272.86 500.00 273.83 500.00C274.80 500.00 276.03 499.61 276.55 499.14C277.07 498.67 280.34 497.70 283.80 496.99C287.27 496.28 289.72 495.32 289.26 494.86C287.23 492.83 264.00 500.43 264.00 503.12C264.00 504.37 264.50 504.25 268.50 502.00ZM219.00 500.50C219.00 499.68 219.45 499.00 220.00 499.00C224.06 499.00 213.88 481.58 208.73 479.69C207.17 479.12 207.10 479.32 208.13 481.27C208.77 482.50 209.57 483.73 209.90 484.00C211.07 484.98 213.00 489.00 213.00 490.46C213.00 491.58 212.45 491.75 210.75 491.12C206.69 489.62 200.00 488.92 200.00 489.99C200.00 490.54 200.34 491.04 200.75 491.08C206.92 491.76 208.69 492.74 214.45 498.62C217.94 502.19 219.00 502.63 219.00 500.50ZM292.50 489.33C295.80 488.47 298.95 487.31 299.50 486.75C300.18 486.06 299.69 485.95 298.00 486.42C296.62 486.79 292.80 487.81 289.50 488.67C286.20 489.53 283.05 490.69 282.50 491.25C281.82 491.94 282.31 492.05 284.00 491.58C285.38 491.21 289.20 490.19 292.50 489.33ZM307.57 484.88C308.43 483.50 304.59 483.85 302.54 485.35C300.87 486.57 301.00 486.65 303.86 486.23C305.60 485.98 307.27 485.37 307.57 484.88ZM317.25 478.38C318.21 478.04 319.00 477.44 319.00 477.04C319.00 474.99 323.05 471.81 324.72 472.55C327.44 473.74 328.15 473.72 333.00 472.33C335.48 471.62 338.35 471.30 339.39 471.63C341.46 472.28 347.80 470.51 352.46 467.98C354.64 466.80 356.20 464.48 358.44 459.08L361.46 451.79L359.23 449.99C358.00 448.99 357.00 447.21 357.00 446.02C357.00 443.04 355.22 440.00 353.46 440.00C352.66 440.00 352.00 439.54 352.00 438.97C352.00 438.40 351.21 437.64 350.25 437.28C349.29 436.92 347.97 435.92 347.33 435.06C345.84 433.07 334.98 432.95 332.62 434.90C331.73 435.64 329.83 436.01 328.36 435.73C326.90 435.45 324.46 435.58 322.93 436.02C321.07 436.55 320.03 436.43 319.78 435.66C319.21 433.81 319.84 411.83 320.56 408.26C321.05 405.86 320.84 404.87 319.72 404.45C318.23 403.88 318.41 400.66 320.05 398.50C321.89 396.06 325.19 383.63 326.54 374.00C327.50 367.13 328.53 363.11 329.53 362.37C330.88 361.37 330.86 361.16 329.31 360.56C328.13 360.11 327.93 359.66 328.70 359.19C329.33 358.80 330.16 357.13 330.56 355.49C330.95 353.85 331.70 351.96 332.21 351.31C332.73 350.65 333.00 349.07 332.82 347.81C332.57 346.01 331.74 347.06 329.15 352.50C324.11 363.04 322.97 367.89 322.72 379.71C322.51 389.57 322.22 391.06 319.31 396.99C316.67 402.37 316.37 403.63 317.56 404.29C319.48 405.37 319.38 406.92 317.25 408.88C313.24 412.59 308.12 422.45 309.49 423.82C309.76 424.10 310.83 423.35 311.86 422.16C315.44 418.04 316.70 419.31 316.90 427.24C317.00 431.23 317.33 435.45 317.62 436.62C318.04 438.28 317.59 438.89 315.58 439.39C314.16 439.75 313.00 440.53 313.00 441.14C313.00 441.94 313.37 441.94 314.34 441.13C315.66 440.04 317.00 440.55 317.00 442.13C317.00 442.57 315.32 444.07 313.27 445.46C308.08 448.99 302.60 448.80 306.18 445.22C307.35 444.05 304.88 444.64 298.25 447.12C295.37 448.19 295.36 449.53 298.24 449.74C299.46 449.84 300.63 450.38 300.82 450.96C301.01 451.53 302.48 452.00 304.08 452.00C307.32 452.00 307.56 452.89 306.07 459.30C305.13 463.35 300.69 468.00 297.75 468.00C296.79 468.00 296.00 468.71 296.00 469.57C296.00 470.91 294.82 471.06 287.75 470.58C281.49 470.15 280.22 470.26 282.50 471.02C284.15 471.57 293.26 472.13 302.75 472.26C319.53 472.49 321.35 472.79 318.75 474.96C318.06 475.53 316.38 476.93 315.00 478.06C313.62 479.20 313.18 479.87 314.00 479.56C314.82 479.25 316.29 478.72 317.25 478.38ZM237.63 475.75C236.54 471.69 236.93 470.93 239.00 473.00C240.10 474.10 241.00 475.68 241.00 476.50C241.00 478.85 238.30 478.25 237.63 475.75ZM199.00 471.46C199.00 471.16 197.99 469.47 196.75 467.71C195.52 465.94 194.39 464.31 194.25 464.08C194.11 463.85 193.74 463.92 193.43 464.24C192.88 464.79 194.45 468.07 196.50 470.66C197.52 471.96 199.00 472.43 199.00 471.46ZM211.00 470.04C211.00 469.50 210.10 468.59 209.00 468.00C207.90 467.41 207.00 466.24 207.00 465.41C207.00 464.57 206.56 464.15 206.02 464.49C204.44 465.47 208.00 470.94 210.25 470.98C210.66 470.99 211.00 470.57 211.00 470.04ZM322.00 469.99C312.45 468.87 310.00 466.86 310.00 460.15C310.00 458.64 309.57 456.97 309.04 456.44C306.79 454.19 315.39 445.17 318.60 446.40C319.27 446.66 320.60 446.00 321.56 444.93C323.24 443.07 323.22 443.00 320.93 443.00L318.55 443.00L321.14 440.41C323.41 438.14 323.99 437.97 325.79 439.10C327.41 440.12 328.41 440.14 330.47 439.19C334.31 437.44 337.47 437.72 342.48 440.25C347.34 442.70 348.40 445.75 345.43 448.72C343.24 450.90 344.40 454.71 348.28 458.10C351.42 460.84 351.42 460.87 349.52 462.98C347.16 465.59 343.16 467.36 336.00 468.95C328.14 470.70 328.06 470.70 322.00 469.99ZM336.99 465.75C336.98 463.21 334.88 457.00 334.02 457.00C332.93 457.00 330.00 459.86 330.00 460.93C330.00 461.37 331.12 461.51 332.50 461.24C334.73 460.82 335.00 461.10 335.00 463.88C335.00 465.60 335.45 467.00 336.00 467.00C336.55 467.00 337.00 466.44 336.99 465.75ZM321.57 462.52C320.91 460.60 320.06 458.73 319.69 458.35C318.60 457.27 318.89 461.92 320.04 464.07C321.77 467.31 322.84 466.22 321.57 462.52ZM343.00 464.15C343.00 463.14 342.10 461.50 341.00 460.50C338.76 458.47 338.42 459.64 340.16 463.45C341.52 466.43 343.00 466.80 343.00 464.15ZM295.39 459.30C295.70 458.57 295.33 458.32 294.45 458.66C293.65 458.96 293.00 459.54 293.00 459.95C293.00 460.35 291.88 461.19 290.50 461.82C289.12 462.44 288.00 463.40 288.00 463.93C288.00 465.14 294.70 460.95 295.39 459.30ZM280.00 461.93C280.00 460.80 279.55 459.02 278.99 457.98C278.20 456.50 278.47 455.62 280.24 453.90C282.29 451.90 282.32 451.78 280.50 452.48C279.40 452.91 277.38 453.46 276.00 453.70C274.62 453.95 272.60 454.53 271.50 455.00C270.40 455.46 268.15 456.16 266.50 456.55C264.85 456.93 264.07 457.46 264.77 457.71C265.47 457.97 267.40 457.71 269.05 457.13C272.97 455.76 274.36 456.39 276.60 460.56C278.70 464.45 280.00 464.98 280.00 461.93ZM202.55 458.25C201.18 456.19 199.56 453.04 198.94 451.25C198.31 449.46 197.40 448.00 196.90 448.00C196.41 448.00 196.00 447.09 196.00 445.97C196.00 444.02 196.11 444.00 199.25 445.59C201.04 446.50 203.35 447.97 204.40 448.87C206.18 450.41 206.23 450.39 205.24 448.50C203.14 444.51 196.58 438.96 192.74 437.93C190.34 437.28 187.61 435.47 185.67 433.23C170.46 415.70 153.99 404.00 144.52 404.00C138.70 404.00 132.00 407.01 132.00 409.63C132.00 410.05 132.54 409.86 133.20 409.20C133.86 408.54 135.17 408.00 136.12 408.00C137.06 408.00 138.00 407.50 138.20 406.89C139.00 404.50 149.76 405.74 154.27 408.75C156.59 410.30 160.23 412.46 162.34 413.54C164.46 414.62 167.48 416.96 169.06 418.75C170.65 420.54 172.63 422.00 173.47 422.00C174.31 422.00 175.00 422.56 175.01 423.25C175.01 423.94 176.92 426.53 179.26 429.00C184.77 434.85 191.00 442.51 191.00 443.43C191.00 443.84 192.50 446.04 194.33 448.33C196.15 450.62 198.97 454.64 200.58 457.25C202.18 459.86 203.84 462.00 204.26 462.00C204.68 462.00 203.91 460.31 202.55 458.25ZM124.91 446.00C124.88 441.45 124.60 440.10 124.00 441.50C122.76 444.39 122.76 455.92 124.00 454.00C124.53 453.18 124.94 449.57 124.91 446.00ZM337.01 444.70C335.99 443.76 335.86 443.77 336.40 444.74C336.79 445.42 336.67 447.52 336.15 449.42C335.63 451.31 335.49 453.16 335.85 453.53C336.21 453.89 336.91 452.33 337.40 450.05C338.07 446.98 337.97 445.59 337.01 444.70ZM112.20 448.75C114.24 445.09 115.66 441.76 119.96 430.50C120.38 429.40 121.56 426.70 122.59 424.50C125.31 418.66 125.37 418.23 123.10 421.00C121.97 422.38 121.03 423.86 121.02 424.30C121.01 424.74 120.10 426.96 119.00 429.24C117.90 431.51 117.00 433.88 117.00 434.49C117.00 435.10 115.20 439.33 113.00 443.88C110.80 448.43 109.00 452.34 109.00 452.57C109.00 453.84 110.08 452.54 112.20 448.75ZM333.00 448.94C333.00 446.90 332.51 446.00 331.38 446.00C330.19 446.00 329.93 446.60 330.37 448.25C330.70 449.49 330.98 451.09 330.99 451.81C330.99 452.53 331.45 452.84 332.00 452.50C332.55 452.16 333.00 450.56 333.00 448.94ZM222.93 431.00C222.94 427.67 221.50 430.20 220.66 435.00C220.05 438.45 220.06 438.47 221.49 436.00C222.28 434.62 222.93 432.38 222.93 431.00ZM131.52 429.50C132.11 427.99 132.00 427.77 131.11 428.59C130.46 429.18 129.73 431.43 129.48 433.59C129.08 437.09 129.12 437.19 129.89 434.50C130.37 432.85 131.10 430.60 131.52 429.50ZM336.52 422.47C339.37 413.34 341.03 399.43 342.38 373.50C342.47 371.85 342.89 369.94 343.33 369.25C343.85 368.42 343.51 368.00 342.28 368.00C341.27 368.00 339.42 367.28 338.16 366.40C335.04 364.21 334.11 365.52 336.92 368.14C339.16 370.22 339.18 370.50 338.66 388.38C338.38 398.34 337.69 408.75 337.14 411.50C335.42 420.04 334.17 425.42 333.42 427.50C332.90 428.96 333.01 429.22 333.84 428.47C334.46 427.90 335.66 425.20 336.52 422.47ZM292.33 421.75C291.46 417.19 291.00 417.05 291.00 421.33C291.00 423.35 291.44 425.00 291.98 425.00C292.54 425.00 292.69 423.62 292.33 421.75ZM288.83 417.50C288.80 414.57 288.78 414.56 288.00 417.00C287.56 418.38 287.19 420.62 287.17 422.00C287.14 424.27 287.22 424.32 288.00 422.50C288.47 421.40 288.85 419.15 288.83 417.50ZM229.55 409.47C230.38 406.27 232.40 400.85 234.03 397.43C237.51 390.15 237.90 388.03 234.84 393.00C231.43 398.56 225.12 418.22 227.52 415.82C227.80 415.53 228.71 412.68 229.55 409.47ZM291.59 410.50C291.50 406.80 290.62 405.95 289.61 408.58C288.57 411.28 288.94 414.00 290.34 414.00C291.22 414.00 291.65 412.80 291.59 410.50ZM268.12 404.75C269.59 401.97 280.66 385.44 282.57 383.16C283.33 382.25 284.53 380.74 285.23 379.82C285.93 378.89 288.07 377.99 289.99 377.82C293.00 377.54 293.50 377.81 293.60 379.72C293.67 380.95 293.29 381.68 292.77 381.36C291.45 380.54 287.01 385.56 278.70 397.25C273.37 404.74 264.97 410.70 268.12 404.75ZM246.74 383.50C249.53 367.74 249.01 365.13 245.94 379.50C245.24 382.80 244.38 385.95 244.03 386.50C243.68 387.05 243.29 389.07 243.17 391.00C242.79 396.92 245.29 391.67 246.74 383.50ZM245.59 363.50C249.82 353.90 250.89 351.00 250.20 351.02C249.41 351.05 240.93 370.96 241.05 372.50C241.14 373.51 241.55 372.68 245.59 363.50ZM350.00 366.50C351.60 365.68 353.26 364.44 353.70 363.75C354.14 363.06 356.75 360.55 359.50 358.16C372.53 346.85 373.58 345.01 372.59 335.21C370.96 319.05 370.77 312.80 371.84 310.68C372.44 309.48 373.11 304.90 373.31 300.50C373.52 296.10 374.27 289.51 374.98 285.85C376.42 278.38 375.77 272.84 373.13 270.25C372.15 269.29 370.28 266.93 368.95 265.00C366.14 260.89 363.00 257.35 363.00 258.27C363.00 258.63 365.53 262.64 368.62 267.18C374.22 275.40 374.24 275.45 373.69 281.44C373.39 284.75 372.67 287.61 372.07 287.81C371.41 288.03 371.00 291.71 371.00 297.42C371.00 306.62 370.98 306.71 367.00 312.26C362.83 318.09 361.99 321.40 364.45 322.34C365.42 322.72 365.71 322.42 365.34 321.44C364.78 319.99 366.56 317.00 367.99 317.00C368.91 317.00 370.07 324.25 370.63 333.52C371.24 343.59 369.88 346.49 361.00 354.04C356.88 357.55 352.69 361.32 351.70 362.42C350.70 363.53 348.68 365.23 347.20 366.21C343.92 368.37 345.97 368.58 350.00 366.50ZM270.43 356.61C275.62 356.37 275.82 355.09 271.52 349.45C267.65 344.39 267.54 342.28 271.32 345.83C274.78 349.08 275.97 348.61 275.27 344.25C274.15 337.19 272.99 335.07 273.36 340.75C273.64 344.96 273.45 345.79 272.41 344.93C271.70 344.34 270.98 342.65 270.81 341.18C270.36 337.29 267.58 337.70 267.19 341.71C266.98 343.89 267.70 346.14 269.44 348.70C270.85 350.77 272.00 352.81 272.00 353.23C272.00 355.74 265.94 351.10 264.65 347.61C264.27 346.57 263.72 345.94 263.44 346.23C262.73 346.93 265.12 352.00 266.16 352.00C266.62 352.00 267.00 352.68 267.00 353.50C267.00 355.53 265.76 355.39 262.73 353.00C259.34 350.33 258.42 350.46 261.00 353.24C262.33 354.66 262.67 355.61 261.93 355.86C260.43 356.36 255.93 350.88 256.50 349.25C256.74 348.56 256.28 348.00 255.47 348.00C253.75 348.00 253.35 340.52 255.02 339.49C256.75 338.42 258.97 332.02 258.58 329.19C258.38 327.71 257.88 324.55 257.46 322.16L256.72 317.82L260.09 318.16C263.46 318.50 263.47 318.48 265.98 311.16C267.37 307.13 269.51 302.70 270.75 301.33C271.99 299.95 273.00 298.38 273.00 297.83C273.00 296.01 275.39 297.60 276.99 300.49C278.49 303.20 278.46 303.45 276.24 305.67C274.96 306.95 273.50 308.00 273.01 308.00C272.52 308.00 271.32 309.35 270.34 311.00C269.37 312.65 268.22 314.00 267.78 314.00C267.35 314.00 267.00 314.79 267.00 315.76C267.00 316.73 266.08 318.10 264.95 318.80C263.27 319.85 262.95 320.93 263.20 324.68C263.46 328.70 263.90 329.49 266.74 331.01C268.52 331.96 270.66 333.30 271.49 333.99C272.33 334.69 273.00 334.80 273.00 334.24C273.00 333.09 270.69 331.03 267.71 329.54C265.00 328.18 263.70 323.49 265.60 321.92C266.37 321.28 267.00 320.14 267.00 319.38C267.00 318.62 267.45 318.00 268.00 318.00C268.55 318.00 269.00 317.17 269.00 316.16C269.00 315.15 270.56 312.90 272.46 311.17L275.93 308.02L278.33 310.42C279.66 311.75 281.03 314.00 281.39 315.43C281.75 316.86 283.38 319.31 285.02 320.87C288.54 324.23 288.68 325.09 285.96 326.79C284.84 327.49 284.19 328.50 284.52 329.03C284.85 329.56 284.64 330.00 284.05 330.00C283.07 330.00 277.43 340.94 278.18 341.38C282.84 344.11 284.05 344.31 285.33 342.56C286.05 341.58 287.23 338.09 287.96 334.80C288.69 331.52 289.92 328.58 290.70 328.28C292.26 327.69 301.00 331.82 301.00 333.16C301.00 333.62 303.14 333.97 305.75 333.93C310.80 333.86 309.18 332.21 303.92 332.07C301.66 332.01 301.20 331.38 300.17 326.92C299.53 324.13 299.00 320.78 299.00 319.48C299.00 318.18 298.55 316.84 298.00 316.50C297.45 316.16 297.00 316.81 297.00 317.94C297.00 319.07 296.57 320.00 296.05 320.00C293.97 320.00 285.21 310.80 284.66 308.03C284.34 306.45 282.61 303.65 280.80 301.83C276.79 297.75 276.78 297.58 280.14 292.00C281.96 288.97 282.87 286.03 282.92 283.00C282.95 280.52 283.10 277.62 283.24 276.54C283.67 273.25 280.18 273.38 279.43 276.68C278.50 280.74 275.40 287.03 272.63 290.47C269.30 294.60 267.00 292.72 267.00 285.88C267.00 283.19 266.55 281.00 266.00 281.00C264.39 281.00 264.85 290.39 266.63 293.95C268.12 296.95 268.12 297.63 266.66 302.36C265.78 305.19 264.52 309.59 263.84 312.15C262.80 316.11 262.30 316.74 260.44 316.40C253.57 315.16 243.00 307.62 243.00 303.97C243.00 300.81 239.21 293.18 237.07 292.04C233.49 290.12 233.73 289.69 244.71 278.11C253.99 268.32 257.00 264.74 257.00 263.48C257.00 262.93 259.31 260.90 262.13 258.98C264.95 257.07 267.90 255.05 268.69 254.50C269.48 253.95 271.92 251.81 274.11 249.75C276.29 247.69 278.74 246.00 279.54 246.00C280.34 246.00 281.00 245.60 281.00 245.12C281.00 244.63 281.79 243.94 282.75 243.59C286.23 242.32 292.36 238.42 292.76 237.22C293.45 235.15 291.23 235.83 282.54 240.34C274.03 244.75 271.00 247.01 271.00 248.93C271.00 249.52 269.65 250.00 268.00 250.00C266.35 250.00 265.05 250.34 265.12 250.75C265.45 252.85 264.75 253.86 262.25 254.91C260.74 255.54 258.38 257.44 257.00 259.13C255.62 260.81 252.86 263.88 250.86 265.95C248.87 268.01 246.94 270.62 246.59 271.73C246.23 272.85 245.02 274.83 243.88 276.13C242.75 277.43 240.86 279.78 239.66 281.34C238.47 282.90 237.02 284.70 236.43 285.34C234.23 287.74 231.80 292.00 232.63 292.00C234.80 292.00 238.91 296.97 240.41 301.38C242.73 308.21 243.86 310.14 247.25 313.03C250.95 316.17 252.17 322.16 252.12 336.98C252.08 352.10 256.11 358.99 264.00 357.33C265.38 357.04 268.27 356.72 270.43 356.61ZM283.00 335.58C283.00 333.19 284.16 330.98 285.10 331.56C286.64 332.51 286.14 337.00 284.50 337.00C283.68 337.00 283.00 336.36 283.00 335.58ZM312.59 325.90C313.65 324.73 314.35 322.74 314.17 321.40C314.00 320.08 314.56 317.58 315.43 315.84C317.38 311.93 317.38 311.85 315.31 312.21C311.86 312.81 311.36 297.11 314.51 287.25C314.94 285.90 314.82 285.00 314.20 285.00C312.29 285.00 310.96 295.15 311.07 308.88C311.13 316.42 310.71 323.73 310.12 325.25C308.85 328.52 309.95 328.81 312.59 325.90ZM319.00 308.87C319.00 308.25 321.45 305.34 324.45 302.42C329.81 297.19 334.66 288.88 333.48 286.97C333.15 286.44 333.54 286.00 334.35 286.00C335.16 286.00 336.83 283.86 338.07 281.25C340.26 276.63 344.42 272.11 346.56 272.04C347.15 272.02 348.50 271.21 349.56 270.25C350.63 269.29 352.74 267.86 354.25 267.08C355.76 266.30 357.00 264.84 357.00 263.83C357.00 262.82 357.45 262.00 358.00 262.00C358.55 262.00 359.00 261.56 359.00 261.03C359.00 260.50 361.25 256.62 364.00 252.40C370.58 242.32 370.82 237.70 365.25 228.34C363.19 224.87 360.94 222.03 360.25 222.02C358.85 222.00 358.54 223.65 359.85 224.17C361.52 224.82 365.96 232.91 364.98 233.51C363.69 234.31 362.00 233.22 362.00 231.59C362.00 230.68 360.30 230.33 356.11 230.40C351.79 230.47 349.69 230.03 348.28 228.75C345.91 226.61 345.00 226.54 345.00 228.50C345.00 230.68 342.93 230.33 339.50 227.58C336.08 224.84 336.36 224.14 341.20 223.35C343.72 222.95 345.13 223.27 346.42 224.56C347.74 225.88 348.37 226.02 348.94 225.10C349.35 224.43 351.29 223.79 353.25 223.69L356.81 223.50L355.19 220.75C353.31 217.56 351.57 217.07 352.50 220.00C353.34 222.64 352.27 222.54 349.94 219.75C348.91 218.51 348.05 218.00 348.03 218.62C348.01 219.29 345.78 219.79 342.46 219.86C335.17 220.03 331.76 222.50 330.14 228.81C328.45 235.39 326.68 236.00 309.23 236.00C296.07 236.00 294.88 236.15 295.21 237.75C295.45 238.93 296.37 239.43 298.03 239.28C299.39 239.15 302.75 238.86 305.50 238.62C308.25 238.39 312.86 237.87 315.74 237.47C322.85 236.49 323.65 237.34 323.48 245.71C323.33 253.33 323.02 254.89 321.31 256.74C320.65 257.45 319.81 261.18 319.43 265.03C319.05 268.89 318.35 272.29 317.87 272.58C317.39 272.88 317.00 274.47 317.00 276.12C317.00 280.12 318.60 278.96 319.46 274.34C320.52 268.73 323.12 262.87 324.38 263.27C324.99 263.47 325.94 264.61 326.49 265.81C327.03 267.02 327.85 268.00 328.30 268.00C329.24 268.00 328.45 264.85 326.47 260.75C325.75 259.24 325.58 258.00 326.10 258.00C326.61 258.00 326.75 256.86 326.41 255.48C325.93 253.57 326.40 252.32 328.39 250.34L331.00 247.73L331.00 250.36C331.00 251.81 331.45 253.00 332.00 253.00C332.55 253.00 332.95 252.66 332.88 252.25C332.38 249.04 333.33 245.02 335.04 243.19C338.60 239.37 339.76 239.99 346.00 248.99C348.86 253.12 349.91 253.95 351.75 253.50C352.99 253.21 354.00 253.42 354.00 253.98C354.00 254.54 354.95 255.00 356.11 255.00C357.90 255.00 358.12 255.41 357.57 257.75C356.72 261.32 353.17 264.30 350.54 263.64C349.42 263.35 346.40 262.61 343.83 262.00C341.26 261.38 337.94 259.75 336.46 258.38C333.38 255.52 332.49 255.83 333.40 259.45C333.87 261.33 334.69 262.00 336.52 262.00C337.88 262.00 339.00 262.45 339.00 263.00C339.00 263.55 339.90 264.00 341.00 264.00C342.54 264.00 343.00 264.67 343.00 266.89C343.00 270.04 341.38 271.17 338.10 270.31C336.58 269.92 336.00 270.23 336.00 271.45C336.00 272.74 335.47 272.97 333.75 272.44C332.51 272.05 331.35 271.35 331.17 270.87C330.46 269.03 329.00 270.12 329.00 272.48C329.00 274.29 328.33 275.13 326.50 275.59C322.81 276.52 323.35 279.36 327.50 280.86C330.65 282.00 331.00 282.50 330.97 285.81C330.92 290.95 328.14 294.00 323.51 294.00C319.67 294.00 318.82 296.40 322.59 296.60C323.64 296.66 325.12 296.77 325.88 296.85C326.72 296.94 325.69 298.69 323.24 301.36C318.62 306.37 316.40 310.00 317.96 310.00C318.53 310.00 319.00 309.49 319.00 308.87ZM356.00 280.08C360.05 275.10 361.46 272.58 362.38 268.75C363.33 264.77 362.49 265.37 360.06 270.37C357.91 274.81 353.91 280.06 348.50 285.52C344.37 289.68 337.00 298.63 337.00 299.47C337.00 300.40 351.60 285.49 356.00 280.08ZM303.07 266.24C304.48 263.44 306.11 260.55 306.69 259.82C308.88 257.09 309.12 254.16 307.32 252.07C304.84 249.16 304.27 249.45 303.50 254.00C303.13 256.20 302.50 258.00 302.11 258.00C300.79 258.00 296.75 267.42 297.91 267.80C298.63 268.04 298.49 268.89 297.50 270.31C295.33 273.40 295.66 274.47 298.25 272.79C299.49 272.00 301.65 269.05 303.07 266.24ZM357.00 247.19C357.00 245.72 359.82 242.49 360.51 243.18C361.60 244.27 359.99 248.00 358.43 248.00C357.64 248.00 357.00 247.64 357.00 247.19ZM352.25 244.50C351.56 243.72 351.00 242.36 351.00 241.47C351.00 240.27 350.43 240.04 348.75 240.54C346.57 241.19 346.56 241.16 348.46 239.71C350.66 238.04 353.00 238.50 353.00 240.61C353.00 241.37 353.45 242.00 354.00 242.00C354.55 242.00 355.00 240.43 355.00 238.50C355.00 236.57 355.45 235.00 356.00 235.00C356.55 235.00 357.00 236.57 357.00 238.50C357.00 240.43 356.55 242.00 356.00 242.00C355.45 242.00 355.00 242.90 355.00 244.00C355.00 246.33 354.01 246.51 352.25 244.50ZM325.00 237.92C325.00 235.48 327.34 235.82 327.82 238.33C328.01 239.32 327.50 240.00 326.57 240.00C325.65 240.00 325.00 239.15 325.00 237.92Z" fill="currentColor" fill-rule="evenodd"/></svg>