<svg xmlns="http://www.w3.org/2000/svg" viewBox="0 0 472 580" width="472" height="580"><path d="M226.83 519.00C227.02 517.62 227.58 516.07 228.08 515.55C229.21 514.38 229.29 509.74 228.20 508.45C227.20 507.25 225.54 502.04 223.98 495.19C223.03 491.03 223.04 488.87 223.99 485.19C224.66 482.61 225.40 479.77 225.64 478.87C225.87 477.97 226.92 476.24 227.98 475.02C229.98 472.71 229.59 472.74 243.30 474.20C245.42 474.43 246.42 473.90 247.45 472.00C249.96 467.39 252.21 458.56 252.74 451.25C253.03 447.26 253.65 444.00 254.13 444.00C254.61 444.00 255.02 442.31 255.04 440.25C255.07 436.79 256.80 427.45 258.97 419.00C261.93 407.47 263.57 398.10 262.43 399.24C262.06 399.61 261.37 402.01 260.89 404.58C260.41 407.14 258.15 413.13 255.86 417.87C250.56 428.90 250.59 428.82 252.29 426.75C254.68 423.83 254.76 424.65 252.96 433.75C252.01 438.56 250.69 446.10 250.02 450.50C248.53 460.32 246.12 470.08 244.79 471.73C244.09 472.59 243.24 472.66 241.96 471.98C240.95 471.44 237.01 471.00 233.19 471.00C229.37 471.00 224.32 470.32 221.97 469.49C217.09 467.77 215.81 468.03 219.49 469.99C222.54 471.63 223.73 476.82 222.01 480.98C220.71 484.11 221.01 488.31 223.11 496.50C225.01 503.90 224.94 518.50 223.00 518.50C222.18 518.50 221.35 517.46 221.17 516.19C220.84 513.82 220.51 513.61 215.75 512.56C213.27 512.02 213.00 512.24 212.97 514.73C212.94 517.23 212.81 517.33 211.62 515.77C210.44 514.21 209.00 514.32 209.00 515.95C209.00 517.09 215.10 520.19 218.32 520.69C220.07 520.96 221.71 521.39 221.96 521.64C223.34 522.98 226.53 521.26 226.83 519.00ZM214.79 518.45C213.50 517.17 215.27 515.00 217.61 515.00C220.14 515.00 220.50 515.67 219.12 517.83C218.46 518.88 218.12 518.77 217.53 517.33C216.82 515.58 216.76 515.58 216.11 517.30C215.74 518.29 215.14 518.81 214.79 518.45ZM266.07 517.90C264.73 517.37 263.07 517.14 262.39 517.40C261.71 517.67 260.60 517.22 259.93 516.42C259.26 515.61 258.51 515.16 258.26 515.41C256.96 516.71 260.93 518.92 264.50 518.90C268.10 518.88 268.26 518.78 266.07 517.90ZM275.40 517.50C276.96 516.32 277.07 515.79 276.04 514.54C274.61 512.82 272.60 513.53 273.35 515.48C273.62 516.18 273.34 517.26 272.72 517.88C271.11 519.49 273.15 519.20 275.40 517.50ZM201.06 509.84C199.93 508.62 198.44 506.36 197.76 504.81C197.07 503.27 196.16 502.00 195.72 502.00C194.73 502.00 196.56 505.51 199.73 509.69C201.06 511.44 202.06 513.69 201.96 514.69C201.61 518.01 202.31 518.55 202.72 515.27C203.00 513.00 202.52 511.40 201.06 509.84ZM199.00 516.14C199.00 515.10 188.05 513.85 186.63 514.73C186.08 515.07 186.50 515.69 187.57 516.10C190.26 517.16 199.00 517.19 199.00 516.14ZM184.17 512.34C182.75 509.70 178.77 506.16 174.87 504.08C172.95 503.05 171.36 501.35 171.18 500.12C170.83 497.77 169.00 498.19 169.00 500.63C169.00 502.68 171.26 504.79 175.25 506.46C178.81 507.95 184.00 512.60 184.00 514.30C184.00 514.87 184.26 515.07 184.58 514.75C184.90 514.43 184.72 513.35 184.17 512.34ZM254.22 512.06C252.45 510.44 251.00 508.69 251.00 508.18C251.00 507.67 249.58 506.97 247.85 506.62C241.33 505.32 240.81 502.49 246.47 499.15C253.94 494.74 254.94 495.03 264.08 504.19C268.64 508.76 271.56 511.15 270.58 509.50C269.60 507.85 267.83 505.67 266.65 504.66C258.28 497.49 257.88 496.94 258.19 493.17C258.50 489.51 258.52 489.50 264.00 488.86C267.02 488.51 270.24 487.92 271.15 487.55C272.76 486.88 279.00 474.26 279.00 471.66C279.00 470.94 280.12 467.60 281.48 464.24C284.85 455.95 286.09 450.22 284.63 449.62C284.00 449.36 284.16 449.12 285.01 449.08C285.86 449.03 287.06 447.24 287.78 444.95C288.47 442.72 290.13 439.23 291.46 437.20C294.38 432.71 297.04 422.79 296.90 416.86L296.80 412.50L295.65 416.68C295.02 418.98 294.16 421.19 293.75 421.60C293.34 422.00 293.00 423.16 293.00 424.16C293.00 425.77 291.66 428.95 284.23 445.00C283.33 446.93 282.34 448.73 282.02 449.00C280.12 450.61 270.80 466.71 270.67 468.61C270.36 472.87 272.18 471.52 274.52 465.75C276.68 460.46 279.01 457.00 280.43 457.00C281.33 457.00 281.10 460.84 280.08 462.76C279.58 463.72 277.51 468.55 275.48 473.50C270.38 485.97 269.57 487.08 265.71 486.94C263.94 486.88 260.81 487.15 258.74 487.55C256.09 488.05 253.59 487.73 250.24 486.45C244.60 484.30 243.00 482.87 243.00 480.01C243.00 478.84 242.55 478.16 242.00 478.50C240.31 479.55 240.89 482.92 243.00 484.23C244.10 484.92 245.00 486.25 245.00 487.19C245.00 488.88 243.04 494.03 242.02 495.00C241.01 495.97 239.08 500.52 238.85 502.50C238.32 507.00 239.91 509.00 244.03 509.00C246.72 509.00 249.25 509.92 252.21 511.97C257.67 515.75 258.30 515.78 254.22 512.06ZM206.54 503.43C206.26 499.82 205.51 495.09 204.86 492.93C203.84 489.51 203.92 488.75 205.50 487.00C206.49 485.90 206.87 485.00 206.32 485.00C204.48 485.00 202.71 489.75 203.47 492.68C203.86 494.23 204.39 497.75 204.63 500.50C205.16 506.52 205.86 510.00 206.54 510.00C206.82 510.00 206.82 507.04 206.54 503.43ZM192.54 496.46C191.03 494.49 189.51 493.18 189.15 493.57C188.79 493.96 189.06 494.47 189.75 494.72C190.44 494.97 191.00 495.66 191.00 496.25C191.00 497.62 194.16 501.18 194.80 500.53C195.06 500.27 194.05 498.44 192.54 496.46ZM190.09 467.00C191.21 457.92 192.37 454.49 193.96 455.48C194.36 455.72 194.73 457.22 194.78 458.81C194.82 460.39 195.83 463.41 197.01 465.51C198.59 468.33 199.20 471.26 199.33 476.59C199.48 482.81 199.75 483.82 201.25 483.70C203.17 483.56 203.55 480.96 202.03 478.24C201.21 476.75 199.47 469.57 197.32 458.75C196.98 457.06 197.21 456.00 197.90 456.00C199.58 456.00 207.61 438.48 211.64 426.00C212.45 423.52 213.50 420.60 213.98 419.50C214.46 418.40 215.40 415.70 216.06 413.50C216.72 411.30 217.59 409.05 217.99 408.50C219.27 406.73 220.03 402.67 220.52 395.00C221.04 386.67 220.53 386.67 219.13 395.00C218.12 401.03 215.46 411.35 214.12 414.50C211.68 420.23 210.66 422.69 210.00 424.50C209.23 426.63 199.79 445.51 197.04 450.43C192.56 458.46 191.58 451.45 195.57 439.93C199.42 428.83 200.70 423.50 200.00 421.50C199.26 419.40 198.56 421.01 195.19 432.50C194.06 436.35 191.93 443.32 190.45 448.00C187.97 455.90 186.95 461.25 185.33 474.84L184.70 480.18L180.52 479.56C174.11 478.59 173.00 479.41 173.00 485.11C173.00 489.23 173.30 490.00 174.88 490.00C175.91 490.00 177.27 489.37 177.91 488.61C178.54 487.85 180.06 487.00 181.28 486.74C182.50 486.47 184.24 485.94 185.16 485.56C186.43 485.02 187.00 485.61 187.66 488.18C188.36 490.96 188.53 490.27 188.70 484.00C188.82 479.88 189.44 472.23 190.09 467.00ZM210.99 482.25L210.99 477.50L209.10 480.36C207.35 483.01 207.33 483.35 208.86 485.03C209.76 486.02 210.61 486.87 210.75 486.92C210.89 486.96 211.00 484.86 210.99 482.25ZM168.34 482.25C168.58 481.84 166.58 481.42 163.88 481.32C161.05 481.21 159.21 481.53 159.54 482.07C160.23 483.18 167.68 483.33 168.34 482.25ZM161.04 452.44C161.60 438.17 162.42 423.90 162.87 420.71C163.32 417.45 163.30 415.30 162.81 415.79C162.33 416.27 161.53 419.32 161.02 422.58C158.36 439.65 156.88 481.52 159.01 479.39C159.59 478.81 160.47 467.21 161.04 452.44ZM212.90 471.69C212.81 468.64 212.76 468.61 212.00 471.00C210.85 474.59 210.85 476.21 212.00 475.50C212.55 475.16 212.96 473.45 212.90 471.69ZM215.30 449.34C214.30 446.74 219.73 426.23 222.01 424.00C223.86 422.19 227.10 411.32 227.40 405.93C227.60 402.39 227.58 400.85 227.37 402.50C226.56 408.67 224.70 414.00 223.37 414.00C222.62 414.00 222.00 414.72 222.00 415.60C222.00 416.48 221.39 418.62 220.65 420.35C217.70 427.26 212.97 447.39 213.04 452.73L213.07 455.50L214.43 453.05C215.17 451.70 215.57 450.03 215.30 449.34ZM229.97 418.60C229.96 418.00 229.18 418.74 228.24 420.25C227.30 421.76 226.19 423.00 225.77 423.00C225.35 423.00 225.00 423.69 225.00 424.54C225.00 425.39 224.10 427.84 223.00 430.00C221.90 432.16 221.01 434.73 221.01 435.71C221.02 436.69 223.05 433.50 225.51 428.60C227.98 423.71 229.99 419.21 229.97 418.60ZM200.58 411.61C200.85 407.42 201.72 403.87 202.99 401.78C205.32 397.96 205.69 395.72 203.52 398.56C202.35 400.09 201.85 400.22 201.17 399.19C200.36 397.95 199.00 408.66 199.00 416.32C199.00 421.76 200.16 418.31 200.58 411.61ZM222.99 386.00C221.87 385.30 223.17 363.29 224.54 359.75C226.46 354.79 227.15 358.88 226.67 372.25C226.23 384.26 226.28 385.09 227.01 377.50C227.48 372.55 228.39 363.77 229.02 358.00C229.65 352.23 230.39 345.14 230.67 342.25C231.15 337.41 231.39 336.99 233.84 336.86C235.69 336.76 235.28 336.53 232.50 336.11L228.50 335.50L228.68 330.00C228.86 324.64 228.84 324.60 227.99 328.50C226.77 334.06 226.78 339.25 228.00 338.50C228.55 338.16 229.00 338.58 229.00 339.44C229.00 340.30 228.65 341.00 228.23 341.00C227.80 341.00 226.90 343.94 226.22 347.53C225.53 351.13 224.87 354.60 224.74 355.25C224.61 355.90 223.69 357.12 222.69 357.97C221.34 359.13 221.10 360.09 221.74 361.82C222.21 363.09 222.27 366.69 221.88 369.81C220.84 378.09 220.86 386.80 221.91 387.45C222.42 387.76 222.72 391.90 222.58 396.64C222.44 401.39 222.59 406.45 222.92 407.89C223.24 409.33 223.63 405.14 223.78 398.58C223.97 390.88 223.69 386.42 222.99 386.00ZM299.11 388.80C300.02 367.34 299.84 365.00 297.23 365.00C296.00 365.00 295.88 364.72 296.76 363.84C297.62 362.98 298.26 362.97 299.27 363.81C301.28 365.48 307.02 342.09 307.01 332.26C307.00 324.67 305.22 316.00 303.68 316.00C303.18 316.00 303.07 317.01 303.43 318.25C304.75 322.71 305.35 341.00 304.17 341.00C303.56 341.00 301.63 338.04 299.88 334.41C298.14 330.79 296.12 327.60 295.41 327.33C294.70 327.06 293.84 325.53 293.48 323.93C293.13 322.33 292.43 320.77 291.92 320.45C289.33 318.85 291.30 316.27 297.09 313.70C300.43 312.22 303.58 311.00 304.09 311.00C304.59 311.00 305.01 310.21 305.02 309.25C305.03 308.29 306.74 306.30 308.82 304.83C310.95 303.32 313.66 300.04 315.01 297.33C316.33 294.67 318.22 291.31 319.21 289.85C320.19 288.39 321.00 286.40 321.00 285.44C321.00 282.19 317.49 286.54 313.62 294.58C311.64 298.69 309.23 302.35 308.26 302.71C307.29 303.08 306.01 304.04 305.40 304.84C304.80 305.65 303.82 306.01 303.23 305.64C302.11 304.95 297.00 306.84 297.00 307.94C297.00 308.28 292.16 308.67 286.25 308.81C276.73 309.03 274.99 308.80 271.00 306.77C264.11 303.27 257.19 298.10 250.69 291.60L244.78 285.70L248.98 277.10C251.29 272.37 253.53 267.82 253.94 267.00C254.39 266.12 256.74 265.25 259.60 264.91C264.65 264.30 264.22 264.14 255.20 263.36C250.58 262.96 249.65 263.20 247.97 265.20C246.44 267.03 245.86 267.22 245.15 266.15C243.92 264.28 233.00 266.63 233.00 268.76C233.00 269.96 234.36 270.09 241.00 269.50C250.60 268.65 250.55 268.52 245.00 279.38C240.56 288.05 240.32 289.00 242.52 289.00C243.59 289.00 243.88 289.67 243.50 291.25C242.65 294.79 249.40 302.79 257.21 307.50C265.38 312.43 265.57 312.61 264.09 314.39C263.08 315.61 263.52 315.74 266.99 315.27C270.29 314.83 271.53 315.15 273.40 316.91C275.42 318.80 276.06 318.93 278.37 317.88C280.65 316.84 281.33 316.95 283.26 318.70C284.49 319.82 286.58 321.58 287.89 322.61C293.09 326.71 294.83 330.50 296.68 341.76C297.37 345.94 298.35 346.47 301.51 344.40L304.07 342.73L303.41 347.11C303.04 349.53 302.35 351.93 301.87 352.45C301.39 352.97 301.00 354.57 301.00 356.00C301.00 357.43 300.46 359.14 299.80 359.80C297.94 361.66 292.61 361.22 290.23 359.00C289.05 357.90 287.61 357.00 287.04 357.00C286.47 357.00 286.00 356.46 286.00 355.80C286.00 354.94 285.69 354.91 284.92 355.68C283.48 357.12 285.54 360.44 288.95 362.18C290.35 362.89 292.97 364.61 294.77 365.99L298.04 368.50L297.38 389.50C297.02 401.05 297.07 410.18 297.48 409.80C297.90 409.41 298.63 399.96 299.11 388.80ZM232.06 394.38C231.48 391.22 230.97 385.68 230.93 382.07C230.89 378.28 230.55 376.28 230.14 377.33C229.74 378.34 229.76 382.84 230.17 387.33C231.10 397.30 232.11 402.90 232.69 401.31C232.93 400.66 232.65 397.54 232.06 394.38ZM265.51 390.25C266.44 387.09 267.60 383.24 268.07 381.69C269.61 376.69 270.38 361.36 269.13 360.58C268.34 360.09 267.97 361.64 267.92 365.69C267.81 372.83 266.69 380.59 264.63 388.50C262.95 394.97 262.78 396.00 263.41 396.00C263.63 396.00 264.58 393.41 265.51 390.25ZM165.41 380.00C166.07 367.67 166.78 359.90 167.58 356.18C168.01 354.14 168.46 353.94 171.29 354.56L174.50 355.27L170.00 351.64C164.44 347.17 161.22 345.44 160.25 346.42C159.84 346.83 160.79 348.28 162.36 349.63L165.21 352.09L164.11 361.46C162.77 372.80 162.62 393.80 163.89 392.45C164.38 391.93 165.07 386.32 165.41 380.00ZM215.58 369.24C214.98 368.64 212.96 373.55 213.08 375.32C213.13 375.97 213.82 374.99 214.63 373.13C215.44 371.28 215.87 369.53 215.58 369.24ZM198.05 359.99C190.64 357.07 187.71 356.65 192.16 359.15C195.93 361.26 200.31 362.76 203.00 362.85C204.40 362.89 202.21 361.63 198.05 359.99ZM284.03 352.97C285.82 351.30 287.07 349.74 286.82 349.49C286.57 349.23 284.84 350.60 282.99 352.51C278.83 356.80 279.58 357.12 284.03 352.97ZM217.75 337.99C219.54 335.26 221.00 332.57 221.00 332.01C221.00 331.46 221.45 331.00 222.00 331.00C222.55 331.00 223.00 330.61 223.00 330.14C223.00 329.66 224.80 326.00 227.00 322.00C229.20 318.00 231.00 314.10 231.00 313.33C231.00 312.56 231.79 311.64 232.75 311.27C234.72 310.53 237.00 308.49 237.00 307.48C237.00 307.11 237.96 305.47 239.13 303.82C241.02 301.17 241.10 300.56 239.89 298.30C237.41 293.66 233.88 294.65 232.44 300.38C231.96 302.32 231.14 303.00 229.33 303.00C227.95 303.00 227.15 303.44 227.50 304.00C227.84 304.55 227.64 305.00 227.06 305.00C226.48 305.00 226.00 304.61 226.00 304.13C226.00 303.65 221.72 303.20 216.50 303.13C208.66 303.02 207.00 303.26 207.00 304.50C207.00 305.32 207.45 306.00 208.00 306.00C208.55 306.00 209.00 306.45 209.00 307.00C209.00 307.55 208.07 308.00 206.94 308.00C205.38 308.00 204.95 307.46 205.19 305.78C205.42 304.13 204.72 303.18 202.50 302.12C200.85 301.33 199.35 300.31 199.17 299.84C198.98 299.38 198.23 299.00 197.49 299.00C196.75 299.00 193.67 296.69 190.64 293.87C186.05 289.58 184.95 287.89 184.04 283.62C183.43 280.80 182.43 276.14 181.81 273.25C181.19 270.36 180.30 268.00 179.84 268.00C179.38 268.00 179.00 268.37 179.00 268.82C179.00 271.05 181.23 282.11 182.60 286.71C183.52 289.77 183.85 292.86 183.42 294.21C182.11 298.24 182.23 302.00 183.66 302.00C184.40 302.00 185.00 302.39 185.00 302.87C185.00 304.42 192.38 308.63 197.19 309.83C205.03 311.78 218.32 311.35 222.50 309.00C226.78 306.60 227.00 306.57 227.00 308.54C227.00 310.16 223.22 318.15 222.04 319.00C220.97 319.78 219.63 323.29 219.56 325.50C219.52 326.69 218.69 327.64 217.50 327.84C215.48 328.18 209.00 336.07 209.00 338.19C209.00 339.72 212.02 343.00 213.40 342.98C214.01 342.97 215.96 340.73 217.75 337.99ZM166.54 328.48C168.05 324.34 169.06 320.73 168.79 320.46C168.52 320.19 167.30 322.78 166.07 326.23C163.03 334.80 162.69 336.00 163.28 336.00C163.57 336.00 165.03 332.61 166.54 328.48ZM254.63 327.23C257.14 325.19 259.00 321.85 259.00 319.35C259.00 318.07 257.63 318.92 254.04 322.46C249.38 327.05 248.55 329.03 251.31 328.98C251.96 328.97 253.46 328.18 254.63 327.23ZM351.58 289.28C357.88 282.51 358.05 281.13 351.86 287.03C344.21 294.32 345.62 294.70 334.28 282.30C330.86 278.56 325.58 272.81 322.55 269.53C319.52 266.24 315.61 260.84 313.85 257.53C312.10 254.21 310.29 251.35 309.83 251.17C308.15 250.49 309.07 248.12 311.25 247.52C313.72 246.84 322.45 243.31 325.31 241.84C326.30 241.33 330.68 241.01 335.04 241.14C344.38 241.42 346.46 240.53 338.42 239.70C335.32 239.38 332.61 238.95 332.40 238.73C331.42 237.76 332.20 228.10 333.41 226.14C334.57 224.28 332.10 222.00 328.94 222.00C327.39 222.00 325.83 221.53 325.47 220.95C325.03 220.24 324.36 220.29 323.37 221.11C319.53 224.30 319.70 215.34 323.60 209.25C324.40 208.01 324.83 207.00 324.57 207.00C323.28 207.00 319.00 209.43 319.00 210.16C319.00 210.62 318.31 211.00 317.47 211.00C316.63 211.00 315.67 211.69 315.35 212.54C315.02 213.38 313.46 214.74 311.88 215.56C309.07 217.01 308.43 216.62 308.88 213.75C308.95 213.34 308.07 213.00 306.94 213.00C305.81 213.00 305.16 213.45 305.50 214.00C306.39 215.45 305.28 215.23 302.52 213.42C300.25 211.93 295.25 199.27 295.81 196.39C295.93 195.78 295.35 193.98 294.52 192.39C293.11 189.69 293.01 190.37 293.02 203.00C293.03 212.08 293.35 216.01 294.00 215.00C294.53 214.18 294.98 212.29 294.98 210.81C294.99 209.33 295.38 207.88 295.85 207.59C296.77 207.02 299.00 211.20 299.00 213.48C299.00 214.24 300.37 215.84 302.05 217.04C305.06 219.18 307.10 219.26 312.75 217.48C314.74 216.85 315.00 217.11 315.00 219.76C315.00 223.33 317.87 224.28 325.80 223.34C331.32 222.68 333.19 224.03 330.65 226.84C329.63 227.96 329.41 229.04 329.99 229.99C330.53 230.86 330.49 231.91 329.88 232.64C329.33 233.31 328.96 234.45 329.06 235.18C329.43 237.94 328.93 238.89 326.75 239.57C324.42 240.30 314.82 244.48 311.76 246.09C310.81 246.59 309.12 247.00 308.01 247.00C306.91 247.00 306.00 247.43 306.00 247.97C306.00 248.50 303.73 249.23 300.97 249.60C294.55 250.45 295.51 251.50 302.71 251.50L308.25 251.50L311.51 257.75C313.31 261.19 314.72 264.06 314.64 264.14C313.69 265.06 305.96 264.33 305.55 263.28C305.15 262.23 304.13 262.41 300.77 264.13C298.42 265.33 297.05 266.50 297.71 266.73C298.38 266.96 299.67 266.72 300.59 266.21C303.15 264.78 306.63 267.02 316.12 276.22C322.27 282.17 326.06 285.00 329.59 286.27C332.29 287.25 336.75 289.59 339.50 291.49C342.25 293.38 344.89 294.95 345.38 294.96C345.86 294.98 348.65 292.43 351.58 289.28ZM361.00 281.08C361.00 280.69 361.82 279.49 362.83 278.41C365.23 275.83 366.74 269.14 364.50 271.00C363.67 271.68 363.00 273.11 363.00 274.17C363.00 275.22 361.88 277.30 360.50 278.78C357.67 281.83 357.29 283.21 359.50 282.36C360.32 282.05 361.00 281.47 361.00 281.08ZM219.00 275.33C219.00 274.22 216.10 275.35 213.75 277.37C209.42 281.09 210.54 282.46 215.00 278.88C217.20 277.11 219.00 275.52 219.00 275.33ZM345.07 279.96C346.40 279.25 347.00 279.25 347.00 279.96C347.00 282.06 352.07 280.91 356.47 277.81C361.78 274.07 362.52 272.18 357.60 274.94C355.33 276.22 351.91 276.93 347.35 277.07C340.21 277.29 336.76 278.60 339.20 280.15C340.96 281.26 342.75 281.20 345.07 279.96ZM291.78 271.19C294.77 269.28 293.88 268.41 290.84 270.27C289.32 271.20 286.82 271.54 283.72 271.25C279.57 270.85 279.01 270.54 279.53 268.90C280.16 266.93 278.59 266.24 277.50 268.00C276.77 269.19 273.00 269.35 273.00 268.20C273.00 267.76 273.54 266.86 274.20 266.20C275.06 265.34 275.08 265.00 274.26 265.00C273.63 265.00 272.84 265.45 272.50 266.00C271.55 267.54 268.87 267.19 266.71 265.25C264.85 263.57 264.78 263.58 265.15 265.49C265.68 268.33 273.40 272.04 280.49 272.89C286.92 273.66 288.23 273.46 291.78 271.19ZM366.90 263.25C366.81 259.90 366.71 259.77 366.00 262.00C364.86 265.57 364.86 267.00 366.00 267.00C366.55 267.00 366.96 265.31 366.90 263.25ZM183.38 255.06C185.00 250.13 185.52 246.14 184.41 247.26C184.09 247.58 183.40 249.79 182.87 252.17C182.35 254.55 181.69 257.29 181.40 258.25C180.14 262.39 181.92 259.54 183.38 255.06ZM258.00 256.00C257.18 255.47 255.44 255.02 254.14 255.02C251.78 255.00 244.64 251.58 242.24 249.32C241.55 248.66 240.09 247.85 238.99 247.50C237.90 247.15 237.00 246.45 237.00 245.93C237.00 245.42 236.44 245.01 235.75 245.03C234.62 245.06 236.01 246.48 241.66 251.06C242.72 251.92 244.46 252.96 245.52 253.37C247.04 253.95 247.16 254.28 246.08 254.95C244.22 256.10 246.85 256.74 254.00 256.87C257.89 256.94 259.06 256.69 258.00 256.00ZM362.66 250.56C359.44 243.94 357.72 242.39 360.04 248.22C361.29 251.35 364.78 257.00 365.46 257.00C365.64 257.00 364.38 254.10 362.66 250.56ZM287.90 253.39C293.47 251.99 295.49 251.00 292.79 251.00C289.49 251.00 277.00 254.27 277.00 255.13C277.00 256.04 278.00 255.88 287.90 253.39ZM242.00 254.00C241.18 253.47 239.82 253.01 239.00 252.99C238.18 252.97 234.91 251.69 231.75 250.15C228.59 248.60 226.00 247.65 226.00 248.03C226.00 249.12 239.21 254.79 242.00 254.91C243.33 254.96 243.33 254.86 242.00 254.00ZM187.00 243.26C187.00 241.68 188.48 236.49 190.08 232.50C190.51 231.40 191.17 229.38 191.53 228.00C192.16 225.60 192.13 225.58 190.73 227.50C189.93 228.60 188.71 231.30 188.01 233.50C187.31 235.70 186.35 238.53 185.87 239.80C184.69 242.90 184.77 246.26 186.00 245.50C186.55 245.16 187.00 244.15 187.00 243.26ZM354.27 232.04C351.56 229.54 347.93 226.45 346.20 225.16C344.47 223.87 341.24 221.17 339.01 219.16C330.72 211.65 327.00 209.43 327.00 212.00C327.00 212.55 327.68 213.00 328.51 213.00C329.84 213.00 335.53 217.79 342.48 224.75C343.72 225.99 345.01 227.00 345.35 227.00C345.70 227.00 346.95 227.79 348.13 228.75C355.06 234.38 357.00 236.39 357.00 237.94C357.00 240.68 358.46 241.43 358.85 238.89C359.11 237.17 357.93 235.42 354.27 232.04ZM309.29 238.00C308.95 236.72 309.53 235.38 310.91 234.25C313.13 232.44 315.04 225.00 313.29 225.00C312.75 225.00 311.50 225.90 310.50 227.00C309.47 228.13 309.19 229.00 309.85 229.00C311.45 229.00 311.29 232.51 309.63 233.89C308.87 234.52 307.53 234.76 306.66 234.42C305.20 233.86 305.20 234.08 306.60 236.90C308.33 240.36 310.10 241.09 309.29 238.00ZM281.00 238.00C281.00 237.45 282.10 237.00 283.44 237.00C284.78 237.00 286.20 236.49 286.59 235.86C287.08 235.06 286.30 234.90 283.89 235.32C280.56 235.90 276.42 235.27 268.50 232.97C266.30 232.34 262.98 231.57 261.12 231.28C258.95 230.94 257.57 230.09 257.26 228.88C256.99 227.84 255.96 227.00 254.97 227.00C253.98 227.00 253.02 226.65 252.83 226.21C252.32 225.01 245.95 220.72 245.43 221.23C245.18 221.48 246.41 222.77 248.15 224.09C249.89 225.42 251.86 227.03 252.51 227.68C254.95 230.07 260.57 232.99 262.75 233.00C263.99 233.00 265.00 233.45 265.00 234.00C265.00 234.55 266.50 235.00 268.33 235.00C270.17 235.00 272.00 235.34 272.41 235.75C273.13 236.49 278.79 238.78 280.25 238.92C280.66 238.97 281.00 238.55 281.00 238.00ZM292.98 224.75C292.97 219.70 292.68 217.96 292.00 219.00C290.72 220.98 290.72 232.00 292.00 232.00C292.58 232.00 292.99 228.93 292.98 224.75ZM196.76 221.11C197.09 220.23 197.65 219.28 198.01 219.00C199.46 217.90 210.00 203.59 210.00 202.73C210.00 202.22 206.55 206.01 202.34 211.15C198.13 216.29 194.04 221.26 193.25 222.18C191.96 223.69 192.04 223.80 193.99 223.29C195.19 222.98 196.44 222.00 196.76 221.11ZM255.47 211.78C255.81 209.73 257.24 206.68 258.66 204.99C260.09 203.30 261.08 201.75 260.87 201.54C260.21 200.88 257.37 203.43 256.08 205.84C255.20 207.48 254.23 208.03 252.84 207.67C251.27 207.26 250.99 207.50 251.55 208.82C251.94 209.75 252.46 211.62 252.71 213.00C252.96 214.38 253.42 216.18 253.74 217.00C254.38 218.68 254.32 218.86 255.47 211.78ZM230.92 213.61C230.69 213.40 227.57 212.98 224.00 212.67L217.50 212.12L224.00 213.37C230.01 214.52 231.97 214.59 230.92 213.61ZM248.18 212.78C247.53 212.13 247.00 210.15 247.00 208.38C247.00 205.66 247.58 204.88 250.73 203.33C254.08 201.69 254.63 200.86 256.02 195.30C256.87 191.89 257.89 188.78 258.27 188.39C258.66 188.01 258.71 186.04 258.39 184.02C257.96 181.38 258.25 179.89 259.40 178.74C261.04 177.10 261.44 173.23 260.37 169.25C259.47 165.91 258.28 166.53 258.80 170.07C259.14 172.41 258.61 173.79 256.58 175.92C253.97 178.64 253.94 178.81 255.36 182.92C256.90 187.38 255.97 188.97 252.60 187.68C250.47 186.86 249.81 188.14 251.67 189.50C253.70 190.98 252.62 192.96 249.69 193.12C248.00 193.21 247.90 193.34 249.25 193.69C251.14 194.18 251.76 199.41 250.05 200.47C248.52 201.42 239.68 198.89 237.43 196.85C235.16 194.81 233.79 195.28 234.74 197.76C235.14 198.80 234.94 199.08 234.17 198.61C233.53 198.21 233.00 198.41 233.00 199.05C233.00 199.71 233.70 199.95 234.62 199.59C235.72 199.17 237.23 200.12 239.26 202.49C241.41 205.01 242.62 205.73 243.48 205.02C245.12 203.65 246.00 204.77 246.00 208.23C246.00 211.40 247.80 215.53 248.76 214.57C249.10 214.24 248.83 213.43 248.18 212.78ZM313.00 207.89C313.00 207.40 312.55 207.00 312.00 207.00C311.45 207.00 311.00 205.65 311.00 204.00C311.00 202.35 310.55 201.00 310.00 201.00C309.45 201.00 309.05 201.34 309.12 201.75C309.59 204.72 308.72 206.95 306.87 207.54C303.87 208.49 306.27 209.76 310.02 209.21C311.66 208.97 313.00 208.37 313.00 207.89ZM231.75 206.30C229.88 204.42 228.06 203.62 225.78 203.66C222.18 203.73 216.40 205.73 217.28 206.61C217.58 206.91 218.74 206.68 219.85 206.08C223.07 204.36 228.44 204.78 230.58 206.94C231.63 208.01 232.94 208.91 233.48 208.94C234.01 208.97 233.24 207.78 231.75 206.30ZM334.56 197.31C336.48 194.03 336.90 192.50 336.10 191.70C335.30 190.90 335.00 191.09 335.00 192.41C335.00 195.00 330.87 202.00 329.35 202.00C328.58 202.00 328.29 201.30 328.63 200.25C329.10 198.77 329.02 198.73 328.11 200.00C327.52 200.82 327.02 202.30 327.02 203.27C326.99 206.17 331.41 202.68 334.56 197.31ZM319.50 199.04C317.44 198.19 317.45 198.18 322.00 196.66C324.16 195.94 317.93 195.91 315.25 196.63C311.19 197.72 312.58 200.01 317.25 199.93C320.47 199.88 321.01 199.66 319.50 199.04ZM278.26 198.30C277.03 198.06 274.78 198.05 273.26 198.28C271.74 198.51 272.75 198.71 275.50 198.71C278.25 198.72 279.49 198.53 278.26 198.30ZM231.17 195.69C229.98 194.41 229.00 192.61 229.00 191.69C229.00 190.76 228.55 190.00 228.00 190.00C227.45 190.00 227.00 189.38 227.00 188.62C227.00 187.86 226.32 186.68 225.50 186.00C223.70 184.51 223.56 185.71 225.06 189.68C226.24 192.79 230.81 198.00 232.36 198.00C232.90 198.00 232.37 196.96 231.17 195.69ZM304.97 196.25C304.93 195.25 302.93 192.84 300.68 191.07C299.01 189.76 298.89 189.87 299.18 192.57C299.36 194.18 299.95 195.83 300.50 196.23C301.81 197.20 305.01 197.21 304.97 196.25ZM333.00 191.98C333.00 191.42 334.22 189.11 335.71 186.86C337.86 183.61 338.47 181.41 338.65 176.26C338.90 169.32 338.99 169.48 329.18 159.36C326.31 156.40 320.23 156.55 321.38 159.55C321.67 160.29 321.09 161.16 320.09 161.47C316.64 162.57 305.00 163.64 305.00 162.86C305.00 161.79 312.81 159.76 314.02 160.51C314.56 160.85 315.50 160.81 316.11 160.43C316.88 159.96 316.80 159.49 315.86 158.89C314.86 158.26 314.83 158.03 315.75 158.02C316.44 158.01 317.00 157.40 317.00 156.67C317.00 155.58 315.92 155.61 311.00 156.81C307.70 157.62 305.00 158.67 305.00 159.15C305.00 159.63 302.94 162.56 300.42 165.65C296.02 171.05 295.87 171.45 296.51 176.07C297.09 180.26 296.90 181.04 295.09 182.18C293.80 182.98 293.04 184.44 293.12 185.99C293.19 187.59 293.39 187.88 293.68 186.81C293.92 185.87 294.67 185.32 295.34 185.58C296.09 185.87 297.05 184.24 297.86 181.27C298.59 178.65 299.35 175.93 299.57 175.23C300.60 171.83 307.00 174.21 307.00 177.99C307.00 181.29 319.49 185.49 320.61 182.58C320.94 181.71 321.84 181.00 322.61 181.00C323.37 181.00 324.00 180.66 324.00 180.24C324.00 179.83 325.35 178.89 327.01 178.16C328.66 177.43 329.76 176.42 329.45 175.91C329.14 175.41 329.58 175.00 330.44 175.00C331.30 175.00 332.00 174.55 332.00 174.00C332.00 173.45 331.59 173.00 331.09 173.00C330.60 173.00 330.42 172.10 330.71 171.00C331.34 168.60 331.07 168.56 327.36 170.49C324.02 172.24 320.00 172.47 320.00 170.93C320.00 170.33 321.80 169.10 323.99 168.18C328.35 166.35 329.17 165.00 325.94 165.00C324.81 165.00 324.16 164.55 324.50 164.00C325.51 162.37 323.76 162.90 319.50 165.53C315.33 168.09 313.00 168.65 313.00 167.08C313.00 166.57 315.22 165.42 317.94 164.52C320.65 163.62 323.05 162.35 323.27 161.69C324.38 158.40 335.00 168.90 335.00 173.29C335.00 174.37 334.10 175.42 332.92 175.73C331.60 176.08 331.25 176.54 331.97 176.98C332.79 177.49 332.64 178.90 331.44 182.09C328.59 189.69 328.42 193.00 330.89 193.00C332.05 193.00 333.00 192.54 333.00 191.98ZM223.00 184.46C223.00 184.16 222.10 182.95 221.00 181.77C219.90 180.59 219.00 178.58 219.00 177.31C219.00 176.04 218.55 175.00 218.00 175.00C217.45 175.00 217.00 175.16 217.00 175.35C217.00 176.50 219.53 182.67 220.43 183.70C221.54 184.97 223.00 185.40 223.00 184.46ZM249.98 178.05C249.91 175.50 243.57 172.56 241.18 173.97C239.69 174.86 239.75 175.04 241.77 175.61C243.61 176.12 243.81 176.52 242.86 177.67C241.86 178.88 242.33 179.06 245.84 178.85C248.13 178.72 249.99 178.36 249.98 178.05ZM231.95 172.57C235.55 167.34 235.64 166.60 233.00 163.77C229.26 159.75 231.18 155.00 236.55 155.00C240.48 155.00 243.05 156.25 247.46 160.29C249.73 162.38 251.19 162.96 253.22 162.58C255.18 162.20 256.32 162.61 257.32 164.05C258.58 165.85 258.71 165.51 258.71 160.45C258.71 153.80 255.05 149.00 249.98 149.00C248.41 149.00 246.84 148.55 246.50 148.00C245.73 146.75 233.74 146.67 232.45 147.92C231.93 148.42 230.38 148.98 229.00 149.17C227.27 149.40 226.59 150.04 226.79 151.25C226.98 152.37 226.45 153.00 225.29 153.00C222.92 153.01 217.79 162.73 218.40 166.06C218.65 167.40 218.88 168.85 218.93 169.27C218.97 169.70 220.22 170.51 221.72 171.08C223.95 171.93 224.17 172.30 222.97 173.15C221.74 174.02 221.77 174.10 223.16 173.66C224.08 173.37 225.59 173.99 226.56 175.07C228.80 177.54 228.41 177.72 231.95 172.57Z" fill="currentColor" fill-rule="evenodd"/></svg>